<?xml version="1.0" standalone="no"?>
<!DOCTYPE svg PUBLIC "-//W3C//DTD SVG 1.1//EN" "http://www.w3.org/Graphics/SVG/1.1/DTD/svg11.dtd" >
<svg xmlns="http://www.w3.org/2000/svg" xmlns:xlink="http://www.w3.org/1999/xlink" version="1.1">
<metadata></metadata>
<defs>
<font id="vacer_serif_personalbold" horiz-adv-x="921" >
<font-face units-per-em="2048" ascent="1536" descent="-512" />
<missing-glyph horiz-adv-x="411" />
<glyph horiz-adv-x="0" />
<glyph horiz-adv-x="0" />
<glyph unicode="&#xd;" horiz-adv-x="1024" />
<glyph unicode=" "  horiz-adv-x="411" />
<glyph unicode="&#x09;" horiz-adv-x="411" />
<glyph unicode="&#xa0;" horiz-adv-x="411" />
<glyph unicode="!" horiz-adv-x="434" d="M68 145q0 59 42 101.5t103 42.5q59 0 101 -42.5t42 -101.5t-42 -102t-101 -43q-61 0 -103 43t-42 102zM88 1075v158h248v-166l-37 -682h-174z" />
<glyph unicode="&#x22;" horiz-adv-x="643" d="M55 1077v156h232v-166l-37 -268h-158zM344 1077v156h231v-166l-36 -268h-158z" />
<glyph unicode="#" horiz-adv-x="833" d="M55 295l21 172h86l45 299h-80l20 174h86l13 82h174l-14 -82h114l12 82h175l-15 -82h76l-20 -174h-80l-47 -299h75l-20 -172h-82l-10 -84h-174l12 84h-115l-10 -84h-174l12 84h-80zM334 467h115l45 299h-113z" />
<glyph unicode="$" horiz-adv-x="890" d="M59 924q0 117 61.5 206t194.5 117v142h248v-142q80 -18 131 -60t80 -98.5t37 -123t2 -134.5l-207 -30l-33 20q16 129 -17.5 204t-113.5 75q-70 0 -102.5 -44t-32.5 -118q0 -61 38 -106.5t95.5 -84t125 -77.5t125 -88.5t95 -112.5t37.5 -154q0 -47 -13 -96t-43 -93 t-80 -78t-124 -50v-182h-248v184q-141 37 -207.5 151.5t-46.5 288.5h232l20 -22q-4 -41 -1 -89t16.5 -89t39 -69t68.5 -28q78 0 107.5 47.5t29.5 106.5q0 61 -37.5 105t-95 83t-124 76t-124 86t-95.5 115.5t-38 161.5z" />
<glyph unicode="%" horiz-adv-x="1019" d="M55 0l643 1264h250l-643 -1264h-250zM55 1044q0 45 17.5 85t47.5 70t68.5 47.5t83.5 17.5t85 -16.5t70 -45t47.5 -68.5t17.5 -85t-16.5 -85t-46.5 -70t-68.5 -47.5t-84.5 -17.5q-43 0 -82.5 16.5t-70.5 46.5t-49.5 68.5t-18.5 83.5zM172 1047q0 -41 30.5 -71t71.5 -30 t71 30t30 71q0 43 -30 71.5t-71 28.5t-71.5 -28.5t-30.5 -71.5zM516 213q0 45 16.5 85t46 70.5t68.5 48t84 17.5t85 -16.5t71 -46t48 -69.5t17 -85t-16 -84t-46 -68.5t-70 -47t-85 -17.5q-43 0 -83 16.5t-70.5 45t-48 67.5t-17.5 84zM633 215q0 -41 29.5 -69.5t70.5 -28.5 t72 28.5t31 69.5q0 43 -31 72.5t-72 29.5t-70.5 -29.5t-29.5 -72.5z" />
<glyph unicode="&#x26;" horiz-adv-x="1060" d="M47 402.5q12 78.5 64.5 148.5t154.5 117q-92 41 -129 119.5t-39 162.5q0 35 6 72q10 45 35 89t66 77t98 53.5t135 20.5q86 0 144.5 -24t95.5 -61.5t55.5 -87t22.5 -98.5q2 -23 3 -42t-3 -40q-8 -109 -62.5 -191.5t-150.5 -137.5l157 -146l72 113h-55v125h330v-199h-66 l-125 -174l82 -100h109v-199h-199l-119 141q-76 -84 -161 -120.5t-164.5 -36.5t-147.5 30.5t-111 81.5q-57 66 -83.5 147t-14.5 159.5zM290 327q9 -38 34 -67q20 -25 55 -36t72.5 -7t73.5 23.5t61 58.5l-176 209q-53 -12 -82 -42t-38 -65.5t0 -73.5zM338 952 q-2 -59 15.5 -108t58.5 -88q61 31 89.5 90t28.5 131q0 106 -92 106q-47 0 -72.5 -37t-27.5 -94z" />
<glyph unicode="'" horiz-adv-x="434" d="M88 1077v156h248v-166l-37 -268h-174z" />
<glyph unicode="(" horiz-adv-x="532" d="M55 494q0 291 85 497.5t225 302.5l102 -67q-18 -20 -47 -68.5t-56.5 -135.5t-47 -216t-19.5 -313q0 -156 18.5 -279t45 -212t52 -144.5t42.5 -75.5l-107 -66q-66 39 -119 114t-92 176.5t-60.5 225t-21.5 261.5z" />
<glyph unicode=")" horiz-adv-x="532" d="M55 1227l103 67q139 -96 224 -303t85 -497q0 -137 -21.5 -261t-59.5 -225.5t-92 -176.5t-120 -114l-106 66q14 20 41.5 75.5t53 144.5t45 212t19.5 279q0 184 -20.5 313t-48 216t-56 135t-47.5 69z" />
<glyph unicode="*" horiz-adv-x="751" d="M53 713l86 147l178 -141l-34 225h172l-31 -229l180 141l86 -149l-207 -84l201 -78l-86 -148l-174 135l31 -217h-172l34 213l-172 -137l-88 152l209 82z" />
<glyph unicode="+" horiz-adv-x="751" d="M55 535v174h228v235h172v-235h229v-174h-229v-220h-172v220h-228z" />
<glyph unicode="," horiz-adv-x="434" d="M68 145q0 57 42 100.5t103 43.5q45 0 81 -24.5t52 -63.5q10 -31 10 -58q0 -23 -8 -46t-18 -38l-115 -161h-109l31 125q-33 16 -51 48.5t-18 73.5z" />
<glyph unicode="-" horiz-adv-x="546" d="M55 377v174h424v-174h-424z" />
<glyph unicode="." horiz-adv-x="434" d="M68 145q0 59 42 101.5t103 42.5q59 0 101 -42.5t42 -101.5t-42 -102t-101 -43q-61 0 -103 43t-42 102z" />
<glyph unicode="/" horiz-adv-x="782" d="M55 -82l410 1368h250l-410 -1368h-250z" />
<glyph unicode="0" horiz-adv-x="923" d="M55 453v340q0 106 19.5 193t66.5 148.5t123 94.5t191 33t192.5 -33t123.5 -94.5t65.5 -148.5t19.5 -193v-340q0 -109 -19.5 -195t-65.5 -147.5t-124 -94t-192 -32.5q-115 0 -191 32.5t-123 94t-66.5 147.5t-19.5 195zM305 465q0 -170 35 -245t115 -75q84 0 118.5 75 t34.5 245v315q0 170 -34.5 245t-118.5 75q-80 0 -115 -75t-35 -245v-315z" />
<glyph unicode="1" horiz-adv-x="413" d="M12 0v199h64v702h-51v70l116 262h185v-1034h63v-199h-377z" />
<glyph unicode="2" horiz-adv-x="854" d="M57 0q0 145 36 236.5t89.5 153t115.5 104.5t115.5 93t89.5 119.5t36 184.5q0 92 -20.5 150.5t-82.5 58.5q-39 0 -64.5 -17.5t-41 -57.5t-20.5 -104.5t-3 -160.5l-33 -31h-206q-12 125 1 224.5t56 168t118.5 104.5t190.5 36q98 0 167 -29t110 -82t59 -127t18 -164 q0 -104 -28.5 -179t-74.5 -131t-102.5 -99t-112.5 -83t-104.5 -84t-76.5 -102h301v64h198v-246h-731z" />
<glyph unicode="3" horiz-adv-x="892" d="M59 831q-6 80 8.5 157t57.5 137.5t117.5 98.5t191.5 38q102 0 176 -27t120 -73t67.5 -108.5t21.5 -135.5q0 -80 -25.5 -133.5t-58.5 -86t-63.5 -49t-38.5 -18.5q8 -2 38.5 -14.5t64.5 -46t61.5 -94t27.5 -154.5q0 -55 -18.5 -115t-61.5 -110t-116.5 -81.5t-184.5 -31.5 q-104 0 -181 32.5t-125 92t-66.5 144.5t-5.5 187h229l20 -22q-4 -41 -1 -89t15.5 -89t39 -69t69.5 -28q76 0 106.5 49.5t30.5 110.5q0 39 1.5 81t-11 77t-44.5 57.5t-99 22.5h-82v166h96q86 0 111.5 54t25.5 171q0 80 -33.5 124t-105.5 44q-78 0 -112.5 -75t-16.5 -204 l-35 -20z" />
<glyph unicode="4" horiz-adv-x="849" d="M51 217v150l469 866h68h131v-850h69v-166h-69v-74h69v-143h-382v143h65v74h-420zM291 383h180v113q4 63 7 123.5t7 121.5l9 99z" />
<glyph unicode="5" horiz-adv-x="888" d="M63 440h230l20 -22q-4 -41 -2 -89t14.5 -89t37 -69t69.5 -28q39 0 65.5 22.5t43 56.5t23.5 74t7 73q0 41 -2 83t-18 76.5t-51 57t-101 22.5q-84 0 -161.5 -5t-126.5 -9l-48 53l50 586h647v-244h-199v64h-209l-33 -285q16 2 40 4t47 2q113 6 192.5 -12.5t129.5 -64.5 t72.5 -122.5t22.5 -187.5q0 -53 -17.5 -122.5t-61.5 -132t-117.5 -105.5t-186.5 -43q-104 0 -180 32.5t-124 92t-66.5 144.5t-6.5 187z" />
<glyph unicode="6" horiz-adv-x="937" d="M55 539v151q0 293 104.5 432.5t329.5 139.5q86 0 147.5 -22.5t102.5 -55.5t65.5 -70t35.5 -63l-19 -47l-207 -48q0 2 -3 23.5t-14 46.5t-33.5 45.5t-59.5 22.5q-80 6 -125 -84q-37 -43 -53.5 -121t-16.5 -182v-25q41 25 93.5 50.5t117.5 25.5q94 0 161 -34t107.5 -87 t60 -122t19.5 -138q0 -66 -19.5 -134.5t-64.5 -127t-118 -95t-179 -36.5q-127 0 -209.5 44t-132 119.5t-70 176t-20.5 215.5zM309 494q2 -78 9.5 -142.5t22.5 -109.5t44 -70t74 -25q78 0 118.5 56.5t40.5 177.5q0 45 -5 87t-19 73.5t-40 50t-65 18.5q-51 0 -98 -31.5 t-82 -84.5z" />
<glyph unicode="7" horiz-adv-x="796" d="M49 989v64v180h684v-121l-311 -969h59v-143h-383v143h66l297 910h-213v-64h-199z" />
<glyph unicode="8" horiz-adv-x="890" d="M55 322q0 90 25.5 148t58.5 93t63.5 49.5t41.5 18.5q-10 2 -40 18.5t-61.5 50t-56.5 87t-25 131.5q0 72 22.5 135t69 109t117 73t168.5 27t170 -27t118 -73t68.5 -109t22.5 -135q0 -78 -25.5 -132.5t-59.5 -88t-64.5 -49t-38.5 -17.5q6 0 37.5 -12.5t66.5 -46t62.5 -94 t27.5 -156.5q0 -53 -17.5 -112.5t-61.5 -110t-117.5 -83t-186.5 -32.5t-186.5 32.5t-117.5 83t-62.5 109.5t-18.5 113zM305 342q0 -86 31.5 -142.5t103.5 -56.5t103.5 52.5t31.5 146.5t-26.5 144.5t-108.5 50.5t-108.5 -54.5t-26.5 -140.5zM305 901q0 -41 5 -77t20.5 -62.5 t42 -41.5t67.5 -15q82 0 108.5 52t26.5 142q0 96 -31.5 148.5t-103.5 52.5t-103.5 -56.5t-31.5 -142.5z" />
<glyph unicode="9" horiz-adv-x="937" d="M57 870q0 63 19.5 133t64.5 127.5t118 94.5t179 37q127 0 211 -43t133 -119t68.5 -176.5t19.5 -214.5v-152q0 -293 -103 -433t-329 -140q-86 0 -147.5 22.5t-102.5 55t-65.5 69.5t-36.5 64l20 47l207 47q0 -6 5.5 -29.5t19.5 -48.5t39.5 -45.5t66.5 -20.5q90 0 131 104.5 t43 291.5v24q-41 -25 -93 -50.5t-117 -25.5q-94 0 -161 34t-109 87.5t-61.5 122t-19.5 137.5zM309 868q0 -47 5 -88t19.5 -73.5t39 -51t65.5 -18.5q51 0 98.5 31.5t81.5 85.5q-2 80 -9 143.5t-23.5 107.5t-44 68.5t-72.5 24.5q-78 0 -119 -55.5t-41 -174.5z" />
<glyph unicode=":" horiz-adv-x="434" d="M68 145q0 59 42 101.5t103 42.5q59 0 101 -42.5t42 -101.5t-42 -102t-101 -43q-61 0 -103 43t-42 102zM68 795q0 59 42 102t103 43q59 0 101 -43t42 -102t-42 -101.5t-101 -42.5q-61 0 -103 42t-42 102z" />
<glyph unicode=";" horiz-adv-x="434" d="M68 145q0 57 42 100.5t103 43.5q45 0 81 -24.5t52 -63.5q10 -31 10 -58q0 -23 -8 -46t-18 -38l-115 -161h-109l31 125q-33 16 -51 48.5t-18 73.5zM68 795q0 59 42 102t103 43q59 0 101 -43t42 -102t-42 -101.5t-101 -42.5q-61 0 -103 42t-42 102z" />
<glyph unicode="&#x3c;" horiz-adv-x="495" d="M55 346v154l373 270v-160l-199 -186l199 -195v-157z" />
<glyph unicode="=" horiz-adv-x="751" d="M55 381v174h629v-174h-629zM55 659v175h629v-175h-629z" />
<glyph unicode="&#x3e;" horiz-adv-x="495" d="M55 72v157l199 195l-199 186v160l373 -270v-154z" />
<glyph unicode="?" horiz-adv-x="847" d="M61 811q-8 84 3.5 165t52.5 144.5t116.5 102.5t194.5 39q98 0 167 -30t109.5 -80t59 -115.5t18.5 -137.5q0 -88 -24.5 -148.5t-61.5 -102.5t-79 -71.5t-78.5 -57t-61 -58.5t-24.5 -76h-189q0 68 19.5 117t50.5 88t64.5 70.5t64.5 67.5t50 80t19 103q0 92 -20 140.5 t-82 48.5q-41 0 -65.5 -19.5t-39 -54.5t-19.5 -82t-5 -102l-33 -31h-207zM217 145q0 59 43 101.5t102 42.5t101.5 -42.5t42.5 -101.5t-42 -102t-102 -43q-59 0 -102 43t-43 102z" />
<glyph unicode="@" horiz-adv-x="1492" d="M55 479q0 172 37 316.5t118 248t211 161t316 57.5q184 0 315.5 -51.5t214.5 -145.5t121.5 -229t38.5 -301q0 -162 -30.5 -268.5t-79.5 -169t-110.5 -88t-121.5 -25.5q-78 0 -124 41t-68 96q-45 -68 -120 -101.5t-173 -33.5q-82 0 -133 34.5t-81 93t-40 137.5t-10 169v110 q0 104 10 188.5t41 143t89.5 90t154.5 31.5q98 0 164.5 -38t105.5 -105l8 50t9 50h219v-690q0 -78 20.5 -79t44.5 46q14 25 25.5 61.5t19.5 79.5t13.5 88.5t5.5 88.5q0 319 -132.5 459.5t-385.5 140.5q-123 0 -223.5 -37t-171 -116t-108.5 -204t-38 -299 q0 -336 143.5 -497.5t394.5 -161.5q170 0 291 74l135 -74q-80 -61 -186 -95t-248 -34q-188 0 -318 60.5t-211 167t-117 250.5t-36 310zM586 420q0 -49 5 -93t21.5 -77t45 -52.5t77.5 -19.5q63 0 95 27.5t45.5 66.5t13.5 81v73v166q0 31 -4 65.5t-19.5 64.5t-46.5 48t-84 18 q-49 0 -77.5 -15t-45 -47t-21.5 -81t-5 -115v-110z" />
<glyph unicode="A" horiz-adv-x="905" d="M-20 0v199h61l262 1034h266l291 -1034h66v-199h-357v180h47l-36 119h-277l-33 -119h64v-180h-354zM332 446h213l-45 140l-68 387l-59 -387z" />
<glyph unicode="B" horiz-adv-x="929" d="M20 0v199h64v835h-64v199h64h395q113 0 191 -21.5t125 -62.5t68.5 -100.5t21.5 -135.5q0 -86 -25.5 -158.5t-89.5 -119.5q66 -43 90.5 -111.5t24.5 -154.5q0 -78 -19.5 -145.5t-65.5 -117t-122 -78t-189 -28.5h-469zM332 170h157q78 0 112 52.5t34 146.5q0 86 -30 134 t-101 54h-172v-387zM332 705h166q33 2 58.5 17t42.5 42t26.5 59.5t9.5 69.5q0 72 -36 121t-120 49h-147v-358z" />
<glyph unicode="C" horiz-adv-x="884" d="M35 440v373q0 92 20.5 174t66.5 143.5t123 97.5t191 36q109 0 190 -35t131 -99q51 -63 71 -153q14 -60 13 -130q0 -34 -3 -69h-226l-22 19q0 68 -6 124t-22.5 97t-45.5 63.5t-74 22.5q-84 0 -121.5 -80t-37.5 -221v-352q0 -145 29.5 -224.5t117.5 -79.5q45 0 76 25 t49 64.5t26.5 93t8.5 108.5l22 21l226 -27q1 -20 1 -40q1 -74 -17 -139q-22 -83 -73 -142.5t-128.5 -93t-184.5 -33.5q-115 0 -192.5 36.5t-123.5 99t-65.5 145.5t-19.5 175z" />
<glyph unicode="D" horiz-adv-x="933" d="M20 0v199h64v835h-64v199h443q133 0 217 -42t130 -122t62.5 -194.5t16.5 -258.5q0 -141 -16.5 -255.5t-63.5 -194.5t-130 -123t-216 -43h-443zM334 168h121q59 0 96 32.5t56.5 92t25.5 141.5t6 182q0 98 -3 181.5t-19.5 142.5t-51.5 92t-96 33h-135v-897z" />
<glyph unicode="E" horiz-adv-x="786" d="M20 0v199h64v835h-64v199h64h674v-262h-199v63h-225v-327h262v-177h-262v-331h233v63h199v-262h-746z" />
<glyph unicode="F" horiz-adv-x="759" d="M20 0v199h64v835h-64v199h740v-262h-199v63h-227v-395h266v-188h-266v-252h63v-199h-377z" />
<glyph unicode="G" horiz-adv-x="907" d="M35 440v373q0 90 19.5 172t66.5 143.5t125 98.5t192 37q111 0 191 -35t130 -99.5t69 -153.5q13 -59 13 -126q0 -35 -3 -72h-224l-24 19q0 68 -6 124t-21.5 97t-44.5 63.5t-74 22.5q-84 0 -122.5 -79t-38.5 -222v-352q0 -147 30.5 -225.5t116.5 -78.5q47 0 78 25t49 66 t25.5 93t7.5 109h-64v199h377v-199h-63v-440h-125q-14 29 -27.5 59.5t-28.5 59.5q-29 -59 -88 -97t-159 -38q-195 0 -286 106.5t-91 349.5z" />
<glyph unicode="H" horiz-adv-x="954" d="M20 0v199h64v835h-64v199h377v-199h-63v-327h287v327h-64v199h64h313v-199h-64v-835h64v-199h-377v199h64v331h-287v-331h63v-199h-377z" />
<glyph unicode="I" horiz-adv-x="399" d="M20 0v199h64v835h-64v199h314v-1034h63v-199h-377zM334 1034v199h63v-199h-63z" />
<glyph unicode="J" horiz-adv-x="780" d="M37 428l215 27l22 -21q0 -55 2.5 -107.5t11.5 -92t28.5 -63.5t54.5 -24q37 0 54 20.5t24.5 59.5t7.5 95.5v130.5v581h-64v199h367v-199h-64v-594q0 -92 -8 -175t-41 -145.5t-99.5 -99t-182.5 -36.5q-100 0 -167 33.5t-105 93t-50 140.5q-8 54 -8 115q0 30 2 62z" />
<glyph unicode="K" horiz-adv-x="870" d="M20 0v199h64v835h-64v199h64h313v-199h-63v-342q20 10 43.5 20.5t36.5 35.5q6 10 22.5 49t37 92t44 112.5t43 109.5t31.5 84t14 38h285v-199h-107q-12 -39 -27.5 -82t-29.5 -80.5t-26.5 -66.5t-18.5 -41q-35 -59 -68.5 -93t-48.5 -38l78 -78l139 -356h111v-199h-285 l-250 573q-6 2 -13 2h-11v-376h63v-199h-377z" />
<glyph unicode="L" horiz-adv-x="714" d="M20 0v199h64v835h-64v199h314h63v-199h-63v-835h178v63h199v-262h-691z" />
<glyph unicode="M" horiz-adv-x="1140" d="M20 0v199h64v835h-64v199h297q57 -166 108.5 -313.5t106.5 -313.5l23 -200l47 167l213 660h305v-199h-63v-835h63v-199h-348v199h35v202l57 371l-252 -772h-112l-219 688l16 -299v-190h51v-199h-328z" />
<glyph unicode="N" horiz-adv-x="954" d="M20 0v199h64v835h-64v199h269l379 -799q-6 27 -13.5 54.5t-11.5 56.5l-22 231v258h-64v199h313v-1233h-204l-379 795q6 -27 12 -52.5t10 -52.5l25 -252v-239h63v-199h-377zM870 1034v199h64v-199h-64z" />
<glyph unicode="O" horiz-adv-x="903" d="M35 616q0 154 15.5 274t60.5 203t122.5 126t204.5 43q125 0 207 -43t128 -126t64.5 -203t18.5 -274q0 -147 -17.5 -263.5t-63.5 -198.5t-127 -126t-210 -44t-207.5 44t-123 124.5t-58.5 198.5t-14 265zM276 616q0 -102 5.5 -187t21.5 -146.5t50 -96t93 -34.5t92 35.5 t48.5 98t18.5 147.5t3 183q0 109 -4 197t-20.5 150.5t-48 96.5t-86.5 34t-89 -34t-52.5 -96.5t-25 -150.5t-6.5 -197z" />
<glyph unicode="P" horiz-adv-x="913" d="M20 0v199h64v835h-64v199h359h100q115 -2 193 -30.5t126 -83t68.5 -131.5t20.5 -173q0 -111 -22.5 -189.5t-77 -130t-145.5 -75t-226 -23.5h-84v-198h65v-199h-377zM332 559h147q86 0 122 69.5t36 186.5q0 115 -39 181.5t-129 66.5h-137v-504z" />
<glyph unicode="Q" horiz-adv-x="903" d="M35 616q0 154 15.5 274t60.5 203t122.5 126t204.5 43q125 0 207 -43t128 -126t64.5 -203t18.5 -274q0 -164 -21.5 -288.5t-80.5 -208.5l84 -74l-140 -117h-39l-65 82q-59 -26 -149 -26h-7q-129 0 -207.5 44t-123 124.5t-58.5 198.5t-14 265zM276 616q0 -102 5.5 -187 t21.5 -146.5t50 -96t93 -34.5q23 0 35 12l-75 98l98 86l80 -74q16 63 20 150.5t4 191.5q0 109 -4 197t-20.5 150.5t-48 96.5t-86.5 34t-89 -34t-52.5 -96.5t-25 -150.5t-6.5 -197z" />
<glyph unicode="R" horiz-adv-x="931" d="M20 0v199h64v835h-64v199h64h375q115 0 193.5 -22.5t127.5 -65.5t70.5 -104.5t21.5 -137.5q0 -121 -53 -216t-184 -134l65 -66l117 -288h94v-199h-272l-143 387q-27 66 -64 100q-51 45 -91 45h-7v-333h63v-199h-377zM334 680h135q39 0 67.5 17.5t48 45t29 64.5t9.5 74 q0 74 -39 128t-125 54h-125v-383z" />
<glyph unicode="S" horiz-adv-x="849" d="M39 924q0 72 22.5 133t69.5 107t119 72t172 26q117 0 192.5 -37t117.5 -98.5t56 -138.5q8 -48 8 -98q0 -29 -3 -59l-207 -30l-33 20q5 42 5 78q0 75 -22 126q-34 75 -114 75q-70 0 -102.5 -44t-32.5 -118q0 -47 22.5 -84t60.5 -67.5t85 -60.5t96 -60q47 -29 92 -63 t81 -75t57.5 -93t21.5 -120q0 -55 -18.5 -113.5t-61.5 -106.5t-117 -79.5t-184 -31.5q-102 0 -179 32.5t-126 92t-69 144.5q-12 53 -12 112q0 36 5 75h231l21 -22q-2 -23 -3 -49q0 -19 2 -40q3 -48 16.5 -89t39 -69t68.5 -28q78 0 107.5 47.5t29.5 106.5q0 45 -20.5 81 t-55.5 65.5t-79 55t-91 54.5q-49 31 -97 64.5t-86 77.5t-61.5 99.5t-23.5 129.5z" />
<glyph unicode="T" horiz-adv-x="788" d="M0 971v262h788v-262h-153v63h-117v-835h64v-199h-377v199h63v835h-116v-63h-152z" />
<glyph unicode="U" horiz-adv-x="925" d="M20 1034v199h66h293v-199h-55v-522q0 -80 4 -146.5t19 -113.5t42 -73.5t74 -26.5t72.5 27.5t38 75.5t15.5 113.5t3 143.5v522h-53v199h366v-199h-63v-467q0 -147 -10.5 -256.5t-49.5 -182.5t-115.5 -108.5t-211.5 -35.5q-133 0 -207 35.5t-111 108.5t-45 182.5t-8 256.5 v467h-64z" />
<glyph unicode="V" horiz-adv-x="880" d="M-57 1034v199h374v-199h-41l113 -444l43 -328l49 328l117 444h-39v199h356v-199h-57l-297 -1034h-268l-289 1034h-61z" />
<glyph unicode="W" horiz-adv-x="1110" d="M-47 1034v199h356v-199h-59l53 -350l21 -360l41 354l65 555h217l66 -535l49 -403l14 356l70 383h-60v199h361v-199h-60l-206 -1034h-258l-60 389l-37 324l-28 -324l-80 -389h-238l-168 1034h-59z" />
<glyph unicode="X" horiz-adv-x="819" d="M-2 0v199h80l112 350l80 96l-102 121l-84 268h-84v199h330v-199h-23l84 -329l88 329h-20v199h360v-199h-92l-92 -268l-111 -121l88 -96l123 -350h84v-199h-354v199h29l-103 358l-96 -358h20v-199h-317z" />
<glyph unicode="Y" horiz-adv-x="790" d="M-41 1034v199h338v-199h-45l94 -211l47 -176l39 168l94 219h-53v199h348v-199h-61l-238 -569v-266h64v-199h-375v199h63v278l-251 557h-64z" />
<glyph unicode="Z" horiz-adv-x="628" d="M-16 0v121l403 932h-205v-64h-198v244h680v-121l-400 -930h189v64h180v-246h-649z" />
<glyph unicode="[" horiz-adv-x="526" d="M55 -283v1577h406v-174h-156v-1229h156v-174h-406z" />
<glyph unicode="\" horiz-adv-x="782" d="M55 1286h250l410 -1368h-250z" />
<glyph unicode="]" horiz-adv-x="526" d="M55 -109h156v1229h-156v174h406v-1577h-406v174z" />
<glyph unicode="^" horiz-adv-x="698" d="M55 889l193 291h194l189 -291h-178l-107 155l-115 -155h-176z" />
<glyph unicode="_" horiz-adv-x="751" d="M55 -45h629v-174h-629v174z" />
<glyph unicode="`" horiz-adv-x="657" d="M59 1321l41 27l484 -195l-37 -92l-447 61z" />
<glyph unicode="a" d="M35 420v110q0 104 10 188.5t41 143t89 90t155 31.5q98 0 164.5 -38t105.5 -105l8 50l8 50h220h63v-199h-63v-542h63v-199h-285q-4 31 -11 60.5t-11 60.5q-45 -68 -120 -101.5t-173 -33.5q-82 0 -133 34.5t-81 93t-40 137.5t-10 169zM285 420q0 -49 5 -93t21.5 -77 t45 -52.5t77.5 -19.5t79 16.5t47.5 42t22.5 57.5t5 60v238q0 31 -4 65.5t-19.5 64.5t-46.5 48t-84 18q-49 0 -77.5 -15t-45 -47t-21.5 -81t-5 -115v-110z" />
<glyph unicode="b" horiz-adv-x="929" d="M20 0v199h64v970h-64v199h64h235v-528q41 68 107 105.5t164 37.5q96 0 154.5 -31.5t89 -90t41 -142.5t10.5 -189v-110q0 -90 -10.5 -169t-39 -137.5t-79.5 -93t-133 -34.5q-98 0 -173 33.5t-120 101.5l-25 -121h-285zM334 354q0 -29 5 -60.5t21.5 -57t46 -42t78.5 -16.5 t78 19.5t45.5 52.5t21.5 77t5 93v110q0 66 -5 115t-21.5 81t-45 47t-78.5 15q-53 0 -82.5 -18t-45 -48t-19.5 -64.5t-4 -65.5v-238z" />
<glyph unicode="c" horiz-adv-x="837" d="M35 391v191q0 88 17.5 161.5t61.5 126t117.5 81t188.5 28.5q215 -1 301 -115q69 -92 69 -242q0 -37 -4 -77h-221l-24 20q0 68 -3 116t-14.5 79t-36 45t-67.5 14q-84 0 -109.5 -56t-25.5 -192v-170q0 -141 25.5 -197.5t109.5 -56.5q76 0 98.5 64.5t22.5 177.5l24 19 l221 -25q2 -22 2 -43q0 -60 -13 -114q-17 -72 -60 -125.5t-116 -84t-179 -30.5q-115 0 -188.5 28.5t-117.5 82t-61.5 128t-17.5 166.5z" />
<glyph unicode="d" d="M35 420v110q0 104 10 188.5t41 143t89 90t155 31.5q98 0 164.5 -38t105.5 -105v329h-63v199h299v-1169h63v-199h-285q-4 31 -11 60.5t-11 60.5q-45 -68 -120 -101.5t-173 -33.5q-82 0 -133 34.5t-81 93t-40 137.5t-10 169zM285 420q0 -49 5 -93t21.5 -77t45 -52.5 t77.5 -19.5t79 16.5t47.5 42t22.5 57.5t5 60v238q0 31 -4 65.5t-19.5 64.5t-46.5 48t-84 18q-49 0 -77.5 -15t-45 -47t-21.5 -81t-5 -115v-110z" />
<glyph unicode="e" horiz-adv-x="837" d="M35 391v191q0 74 17.5 144.5t60.5 126.5t117.5 91t189.5 35q104 0 175 -32t115 -87t62.5 -130t18.5 -161v-116l-19 -19h-487v-31q0 -137 25.5 -196.5t109.5 -59.5q66 0 88 44.5t31 127.5l34 13l213 -29q-4 -55 -27.5 -111.5t-68.5 -102.5t-111.5 -74.5t-158.5 -28.5 q-115 0 -188.5 34.5t-117.5 92t-61.5 130t-17.5 148.5zM285 563h256v4v64q0 96 -24.5 142t-96.5 46q-84 0 -109.5 -59.5t-25.5 -188.5v-8z" />
<glyph unicode="f" horiz-adv-x="466" d="M6 776v164h90v102q0 227 94 306q60 51 157 51q53 0 116 -15v-176q-35 2 -57.5 -5t-36 -26.5t-18.5 -54.5t-5 -90v-92h117v-164h-117v-577h64v-199h-377v199h63v577h-90z" />
<glyph unicode="g" d="M35 420v110q0 106 10 190.5t42 143t89 89t154 30.5q96 0 163.5 -37t108.5 -104q4 25 8 49t8 49h218h63v-199h-63v-743q-4 -80 -22.5 -145.5t-62.5 -112.5t-117 -72.5t-183 -25.5q-174 0 -268.5 64.5t-94.5 174.5l35 43h207q-2 -121 121 -121q88 0 112.5 59.5t24.5 190.5 v64q-45 -66 -118 -98.5t-169 -32.5q-80 0 -132 33.5t-82 92t-41 138.5t-11 170zM285 420q0 -51 6 -95t22.5 -77t46 -51.5t76.5 -18.5q45 0 74 14.5t46 38t24.5 54t7.5 61.5v275q0 31 -7.5 60.5t-24.5 53t-46 38.5t-74 15q-47 0 -76.5 -15t-46 -47t-22.5 -80t-6 -116v-110z " />
<glyph unicode="h" horiz-adv-x="968" d="M20 0v199h64v970h-64v199h64h240v-543q92 158 294 158q94 0 147.5 -26.5t80 -78t33 -123t6.5 -163.5v-393h63v-199h-377v199h64v393q0 106 -30 151t-124 45q-45 0 -73.5 -15t-45 -39.5t-22.5 -56.5t-6 -65v-413h63v-199h-377z" />
<glyph unicode="i" horiz-adv-x="419" d="M20 0v199h64v542h-64v199h314v-741h63v-199h-377zM55 1204q0 63 45 108.5t109 45.5q63 0 108 -45.5t45 -108.5q0 -66 -45 -109.5t-108 -43.5t-108.5 44t-45.5 109z" />
<glyph unicode="j" horiz-adv-x="419" d="M-29 -152q33 0 55.5 6.5t35 26t17.5 53t5 86.5v721h-64v199h314v-930q0 -223 -91 -302q-59 -51 -156 -51q-52 0 -116 15v176zM55 1204q0 63 45 108.5t109 45.5q63 0 108 -45.5t45 -108.5q0 -66 -45 -109.5t-108 -43.5t-108.5 44t-45.5 109z" />
<glyph unicode="k" horiz-adv-x="866" d="M20 0v199h64v970h-64v199h64h250v-819q16 -6 45 -2q23 4 42 19.5t36 45.5q10 18 36.5 71.5t55.5 111.5q33 68 72 145h247v-199h-90q-18 -41 -33.5 -72.5t-25.5 -47.5q-35 -61 -69 -95t-48 -39l78 -77l100 -211h88v-199h-227l-248 432h-59v-233h63v-199h-377z" />
<glyph unicode="l" horiz-adv-x="417" d="M20 0v199h64v970h-64v199h314v-1169h63v-199h-377z" />
<glyph unicode="m" horiz-adv-x="1400" d="M20 0v199h64v542h-64v199h64h192l29 -106q35 72 93.5 110.5t138.5 38.5q63 0 105 -11t67.5 -31.5t39 -49.5t23.5 -62q14 39 44 69t69 48.5t84 27.5t92 9q92 0 144 -31.5t77 -87t30 -131.5t5 -166v-368h63v-199h-376v199h63v321q0 143 -20.5 205.5t-94.5 62.5 q-39 0 -63.5 -13t-38.5 -34.5t-19.5 -49t-5.5 -56.5v-436h64v-199h-377v199h63v319q0 145 -19 207.5t-95 62.5q-45 0 -70.5 -17t-38 -46t-15.5 -63.5t-3 -67.5v-395h63v-199h-377z" />
<glyph unicode="n" horiz-adv-x="968" d="M20 0v199h64v542h-64v199h281q6 -29 11 -57.5t12 -57.5q23 43 57.5 76t79.5 49q66 31 152 31h20q92 -2 142 -29.5t74.5 -78t30 -122t5.5 -159.5v-393h63v-199h-377v199h64v393q0 106 -30 151t-124 45q-45 0 -73.5 -15t-45 -39.5t-22.5 -56.5t-6 -65v-413h63v-199h-377z " />
<glyph unicode="o" horiz-adv-x="886" d="M35 391v187q0 90 20.5 164.5t66.5 128t122.5 83t191.5 29.5t192 -29.5t124 -83t67.5 -128t20.5 -164.5v-187q0 -90 -20.5 -164.5t-67.5 -128t-124 -83t-192 -29.5t-191.5 29.5t-122.5 83t-66.5 128t-20.5 164.5zM285 401q0 -131 33.5 -192.5t117.5 -61.5q86 0 121 61.5 t35 192.5v166q0 131 -35 192.5t-121 61.5q-84 0 -117.5 -61.5t-33.5 -192.5v-166z" />
<glyph unicode="p" horiz-adv-x="929" d="M20 -125h64v866h-64v199h64h219l16 -100q41 68 107 105.5t164 37.5q96 0 154.5 -31.5t89 -90t41 -142.5t10.5 -189v-110q0 -90 -10.5 -169t-39 -137.5t-79.5 -93t-133 -34.5q-98 0 -173 33.5t-120 101.5v-246h63v-199h-373v199zM334 354q0 -29 5 -60.5t21.5 -57t46 -42 t78.5 -16.5t78 19.5t45.5 52.5t21.5 77t5 93v110q0 66 -5 115t-21.5 81t-45 47t-78.5 15q-53 0 -82.5 -18t-45 -48t-19.5 -64.5t-4 -65.5v-238z" />
<glyph unicode="q" d="M35 420v110q0 104 9 187.5t39 142t86 90t150 31.5q31 2 57.5 -1t53.5 -9q59 -14 101 -49t69 -82l8 50l8 50h283v-199h-63v-866h63v-199h-371v199h64v246q-31 -47 -79 -80t-110 -45q-29 -4 -57.5 -7t-56.5 -1q-80 0 -129 34.5t-77 94t-38 137.5t-10 166zM285 420 q0 -49 5 -93t21.5 -77t45 -52.5t77.5 -19.5q63 0 95 27.5t45.5 66.5t13.5 81v73v166q0 31 -4 65.5t-19.5 64.5t-46.5 48t-84 18q-49 0 -77.5 -15t-45 -47t-21.5 -81t-5 -115v-110z" />
<glyph unicode="r" horiz-adv-x="602" d="M20 0v199h64v542h-64v199h64h217q6 -29 11 -58.5t10 -58.5q20 84 78 131q56 45 119 45h5q37 0 68 -18v-242l-35 -26q-31 40 -74 40q-19 0 -39 -8q-61 -23 -85.5 -81t-24.5 -121v-344h63v-199h-377z" />
<glyph unicode="s" horiz-adv-x="835" d="M33 340h229l23 -23q-1 -16 -1 -30q0 -54 18 -94q22 -50 101 -50q78 0 107 32t29 85q0 39 -18.5 65.5t-49.5 47t-72 36t-84 31.5q-47 16 -94 35t-84 45.5t-61.5 63.5t-28.5 90q-1 14 -1 27q0 47 16 91q20 56 67 97t120 65.5t173 24.5q168 0 260 -80q90 -78 90 -213v-6 l-209 -31l-33 21q-2 68 -22.5 107.5t-93.5 39.5q-70 0 -95.5 -32.5t-25.5 -77.5q0 -43 22.5 -72t58.5 -48.5t83 -33.5t96 -31q45 -14 87 -32.5t76 -46t54.5 -67.5t20.5 -97q0 -53 -20.5 -106.5t-67 -94.5t-120 -66.5t-180.5 -25.5q-92 0 -163.5 24.5t-120.5 70.5 q-49 45 -71 111q-17 48 -17 106q0 20 2 42z" />
<glyph unicode="t" horiz-adv-x="493" d="M4 776v164h88v227l195 45h55v-272h119v-164h-119v-409q0 -59 5 -96.5t18.5 -57.5t36 -27.5t59.5 -5.5v-182q-65 -16 -119 -16q-98 0 -158 56q-92 87 -92 337v401h-88z" />
<glyph unicode="u" horiz-adv-x="970" d="M20 741v199h64h311v-199h-63v-321q0 -74 5 -122t20.5 -78t45 -41t76.5 -11q45 0 76 16.5t48.5 42t24.5 58t9 65.5v391h-64v199h377v-199h-63v-542h63v-199h-280q-4 31 -9.5 63.5t-9.5 63.5q-31 -53 -81 -89t-115 -46q-35 -8 -86 -8q-74 2 -127.5 22.5t-89 67.5t-52 123.5 t-16.5 187.5v356h-64z" />
<glyph unicode="v" horiz-adv-x="823" d="M-16 741v199h354v-199h-49l80 -239l43 -299l43 299l80 239h-54v199h357v-199h-64l-239 -741h-240l-250 741h-61z" />
<glyph unicode="w" horiz-adv-x="1069" d="M-6 741v199h323l-18 -199h-39l43 -227l19 -233l24 227l86 432h180l88 -428l33 -231l10 231l48 229h-33l-19 199h336v-199h-55l-170 -741h-209l-98 346l-19 236l-22 -236l-105 -346h-221l-135 741h-47z" />
<glyph unicode="x" horiz-adv-x="729" d="M-10 0v199h76l77 215l80 75q-4 0 -16 10.5t-29.5 29t-36 44t-32.5 56.5l-52 112h-67v199h282v-162h-36l108 -211l109 211h-35v162h317v-199h-78l-57 -118q-14 -31 -34.5 -55.5t-39 -41t-32 -27t-15.5 -10.5l86 -75l86 -215h86v-199h-315v162h35l-113 221l-106 -221h32 v-162h-280z" />
<glyph unicode="y" horiz-adv-x="821" d="M-16 741v199h354v-199h-49l80 -225l26 -256l62 256l78 225h-54v199h357v-199h-62l-325 -866h57v-199h-375v199h90l68 166l-246 700h-61z" />
<glyph unicode="z" horiz-adv-x="665" d="M14 0v121l371 641h-209v-64h-162v244h635v-121l-348 -639h186v64h162v-246h-635z" />
<glyph unicode="{" horiz-adv-x="552" d="M55 465v55q49 33 69.5 84t26 109.5t1 115t-4.5 97.5q0 178 74 261t201 107l65 -67q-12 -12 -28.5 -34t-31.5 -57.5t-26.5 -90t-11.5 -136.5q0 -43 7 -97t9.5 -109.5t-7 -105.5t-44.5 -85l-75 -18l75 -17q35 -35 44.5 -80t6 -92t-11.5 -93t-8 -85q2 -92 12.5 -152.5 t23.5 -99.5t28.5 -59.5t25.5 -32.5l-69 -66q-51 14 -94.5 36t-76 55.5t-55 83t-30.5 116.5q-4 25 -6.5 52.5t-2.5 58.5q0 37 4.5 90t-1 105.5t-25 94.5t-64.5 56z" />
<glyph unicode="|" horiz-adv-x="391" d="M66 -246v1573h249v-1573h-249z" />
<glyph unicode="}" horiz-adv-x="552" d="M55 1227l66 67q127 -25 200.5 -107.5t73.5 -260.5q0 -41 -4 -97.5t1 -115t25.5 -109.5t69.5 -84v-55q-45 -14 -64.5 -56t-24.5 -94.5t-1 -105.5t4 -90q0 -61 -6 -111q-10 -68 -32.5 -117t-55.5 -82.5t-76 -55t-94 -36.5l-69 66q10 12 25.5 32.5t28.5 59.5t23.5 99.5 t12.5 152.5q0 39 -8.5 85t-11.5 93t6.5 92t43.5 80l76 17l-76 18q-35 35 -44 85t-7 105.5t9.5 109.5t7.5 97q0 82 -11.5 136.5t-27 90t-31.5 57t-29 34.5z" />
<glyph unicode="~" horiz-adv-x="829" d="M55 446q33 68 77 111t95.5 61.5t108 8t115.5 -51.5q43 -31 70.5 -43t48 -9t37 22.5t34.5 56.5l121 -74q-68 -141 -169 -178t-218 49q-43 31 -73 45.5t-52.5 10.5t-41 -26.5t-36.5 -61.5z" />
<glyph unicode="&#xa1;" horiz-adv-x="434" d="M54 883q0 59 42 102t101 43q61 0 103 -43t42 -102t-42 -101.5t-103 -42.5q-59 0 -101 42.5t-42 101.5zM74 -39l37 682h174l37 -690v-158h-248v166z" />
<glyph unicode="&#xa2;" horiz-adv-x="878" d="M55 494v190q0 74 12.5 137.5t42 113.5t78 84t121.5 50v156h250v-154q147 -31 206.5 -140.5t41.5 -283.5h-221l-25 21q0 68 -3 115.5t-14.5 78.5t-36 45.5t-67.5 14.5q-84 0 -109.5 -56.5t-25.5 -191.5v-170q0 -141 25.5 -197.5t109.5 -56.5q76 0 98.5 64.5t22.5 177.5 l25 18l221 -25q10 -145 -47.5 -249.5t-200.5 -135.5v-161h-250v161q-74 14 -122 49t-77.5 86.5t-42 116t-12.5 142.5z" />
<glyph unicode="&#xa3;" horiz-adv-x="985" d="M14 459v174h90v180q0 92 20.5 174t67 143.5t123 97.5t191.5 36q111 0 190.5 -35t131 -98.5t71 -153.5t8.5 -199h-223l-22 19q0 68 -6.5 124t-23 97t-45 63.5t-73.5 22.5q-84 0 -122 -80t-38 -221v-170h205v-174h-205v-260h361v63h198v-262h-872v199h63v260h-90z" />
<glyph unicode="&#xa4;" horiz-adv-x="751" d="M84 791l125 120l84 -88q39 19 84 19q43 0 78 -15l80 80l122 -121l-77 -79q8 -18 13 -38t5 -42q0 -45 -20 -86l75 -74l-125 -121l-75 76q-16 -6 -34 -10t-38 -4q-43 0 -82 16l-86 -84l-123 123l86 84q-6 18 -10 36.5t-4 39.5q0 20 4 38.5t10 36.5zM246 625q0 -55 39 -94 t94 -39t95 38.5t40 94.5q0 57 -40 96t-95 39t-94 -39t-39 -96z" />
<glyph unicode="&#xa5;" horiz-adv-x="831" d="M-20 1034v199h337v-199h-20l51 -135l66 -252l63 252l51 135h-22v199h336v-199h-62l-159 -381l-21 -55h125v-137h-180q0 -4 -1 -5t-1 -5v-58h182v-137h-182v-57h63v-199h-375v199h64v57h-199v137h199v68h-199v137h142l-21 49l-174 387h-63z" />
<glyph unicode="&#xa6;" horiz-adv-x="391" d="M66 -246v688h249v-688h-249zM66 631v696h249v-696h-249z" />
<glyph unicode="&#xa7;" horiz-adv-x="882" d="M59 340h230l20 -23q-6 -74 16.5 -124t104.5 -50q78 0 106.5 32t28.5 85q0 59 -43 94t-106 58l-84 30q-47 16 -92 35t-81 45.5t-59.5 62.5t-25.5 89q-4 47 6 91t37 81q-41 43 -43 112q-4 63 16.5 119t66.5 96.5t118.5 65.5t173.5 25q168 0 260 -81t90 -218l-209 -31 l-35 20q4 47 -12.5 82t-50.5 51q-27 14 -58 14.5t-56.5 -13t-43 -38t-17.5 -59.5q0 -47 25 -75.5t62.5 -48t87 -34t98.5 -30.5q43 -14 84 -31.5t72.5 -45.5t51 -68t19.5 -95q0 -82 -47 -151q20 -27 33.5 -60t13.5 -73q0 -53 -20.5 -105.5t-66.5 -94.5t-119.5 -67.5 t-180.5 -25.5q-92 0 -163.5 24.5t-121 70.5t-72 111.5t-14.5 147.5zM317 707q0 -51 30 -81t75 -51q33 -14 68.5 -25t70.5 -28q2 6 3 11.5t1 11.5q0 47 -28.5 75.5t-69.5 51.5q-33 16 -70 29.5t-73 29.5q-7 -10 -7 -24z" />
<glyph unicode="&#xa8;" horiz-adv-x="696" d="M55 1217q0 53 37 91t90 38t91 -38t38 -91t-37.5 -91.5t-91.5 -38.5q-53 0 -90 38t-37 92zM375 1217q0 53 37 91t90 38t91 -38t38 -91t-38 -91.5t-91 -38.5t-90 38t-37 92z" />
<glyph unicode="&#xa9;" horiz-adv-x="1425" d="M55 180v606q0 113 38 209.5t119 165t206 108.5t301 40q174 0 295 -37t197.5 -106.5t111.5 -166t35 -213.5v-606q0 -117 -35 -208t-110.5 -155.5t-197.5 -100t-296 -40.5q-174 -6 -300 30t-207 103.5t-119 162t-38 208.5zM250 193q0 -78 25.5 -145.5t81 -117t144.5 -76 t218 -22.5q127 4 213 29.5t138 72t73.5 112t21.5 147.5v581q0 80 -21.5 148.5t-73.5 120t-138 81t-213 29.5q-129 0 -218 -29.5t-144.5 -80t-81 -120t-25.5 -149.5v-581zM334 391v191q0 88 17.5 161.5t61.5 126t117.5 81t188.5 28.5q215 0 301 -114.5t65 -319.5h-221l-24 20 q0 68 -3 116t-14.5 79t-36 45t-67.5 14q-84 0 -109.5 -56t-25.5 -192v-170q0 -141 25.5 -197.5t109.5 -56.5q76 0 98.5 64.5t22.5 177.5l24 19l221 -25q6 -84 -11 -156.5t-60 -126t-116 -84t-179 -30.5q-115 0 -188.5 28.5t-117.5 82t-61.5 128t-17.5 166.5z" />
<glyph unicode="&#xaa;" horiz-adv-x="923" d="M21 916v110q0 104 10 188.5t41 143t89 90t155 31.5q98 0 164.5 -38t105.5 -105l8 50l8 50h220h63v-199h-63v-542h63v-199h-285q-4 31 -11 60.5t-11 60.5q-45 -68 -120 -101.5t-173 -33.5q-82 0 -133 34.5t-81 93t-40 137.5t-10 169zM271 916q0 -49 5 -93t21.5 -77 t45 -52.5t77.5 -19.5t79 16.5t47.5 42t22.5 57.5t5 60v238q0 31 -4 65.5t-19.5 64.5t-46.5 48t-84 18q-49 0 -77.5 -15t-45 -47t-21.5 -81t-5 -115v-110z" />
<glyph unicode="&#xab;" horiz-adv-x="829" d="M55 346v154l373 270v-160l-199 -186l199 -195v-157zM389 346v154l373 270v-160l-199 -186l199 -195v-157z" />
<glyph unicode="&#xac;" horiz-adv-x="751" d="M55 535v174h629v-402h-172v228h-457z" />
<glyph unicode="&#xad;" horiz-adv-x="546" d="M55 377v174h424v-174h-424z" />
<glyph unicode="&#xae;" horiz-adv-x="1425" d="M55 180v606q0 113 38 209.5t119 165t206 108.5t301 40q174 0 295 -37t197.5 -106.5t111.5 -166t35 -213.5v-606q0 -117 -35 -208t-110.5 -155.5t-197.5 -100t-296 -40.5q-174 -6 -300 30t-207 103.5t-119 162t-38 208.5zM250 193q0 -78 25.5 -145.5t81 -117t144.5 -76 t218 -22.5q127 4 213 29.5t138 72t73.5 112t21.5 147.5v581q0 80 -21.5 148.5t-73.5 120t-138 81t-213 29.5q-129 0 -218 -29.5t-144.5 -80t-81 -120t-25.5 -149.5v-581zM262 0v199h64v630h-64v199h64h374q115 0 194 -22.5t128 -65.5t70.5 -104.5t21.5 -137.5 q0 -121 -53 -216t-184 -134l84 -20l98 -129h94v-199h-272l-111 213q-16 33 -32.5 53.5t-39.5 34.5q-29 18 -64.5 23.5t-58.5 3.5v-129h64v-199h-377zM575 475h136q39 0 67.5 17.5t48 45t28.5 64.5t9 74q0 74 -39 128t-125 54h-125v-383z" />
<glyph unicode="&#xaf;" horiz-adv-x="700" d="M55 1122v160h578v-160h-578z" />
<glyph unicode="&#xb0;" horiz-adv-x="559" d="M55 1014q0 45 17.5 85t47.5 69.5t68.5 47t83.5 17.5t85 -16.5t70 -45t47.5 -68.5t17.5 -85t-16.5 -85t-46.5 -69.5t-68.5 -47t-84.5 -17.5q-45 0 -84.5 16t-69.5 45t-48.5 69t-18.5 85zM139 1016q0 -55 40 -94t95 -39t95.5 39t40.5 94q0 57 -40 95t-96 38q-55 0 -95 -38 t-40 -95z" />
<glyph unicode="&#xb1;" horiz-adv-x="751" d="M55 51v174h629v-174h-629zM55 535v174h228v235h172v-235h229v-174h-229v-220h-172v220h-228z" />
<glyph unicode="&#xb2;" horiz-adv-x="854" d="M57 410q0 106 35 179t89.5 127t116.5 98t115.5 91t89.5 105.5t36 144.5q0 72 -25 111t-78 39q-37 0 -62.5 -15.5t-41 -54.5t-21.5 -102.5t-4 -159.5l-33 -31h-206q-12 125 1 222.5t56 165t118.5 102t190.5 34.5q174 0 264 -91t90 -251q0 -80 -29.5 -141t-75.5 -109.5 t-103.5 -86t-112.5 -70.5t-103.5 -62.5t-74.5 -62.5h499v-182h-731z" />
<glyph unicode="&#xb3;" horiz-adv-x="892" d="M59 1098q-6 76 12.5 143.5t64.5 117.5t120 78.5t178 28.5q102 0 176 -25.5t120 -68.5t67.5 -99t21.5 -118q0 -66 -25.5 -105.5t-58.5 -63t-63.5 -34t-38.5 -12.5q8 0 40 -7t65.5 -31.5t60 -71t26.5 -125.5q0 -55 -24.5 -108.5t-72.5 -94.5t-118.5 -66.5t-165.5 -25.5 q-221 0 -312 104t-66 307h229l20 -22q-4 -39 -1 -80t15.5 -74t38 -54.5t70.5 -21.5q66 0 101.5 39t35.5 97q0 37 -7 68.5t-23.5 56t-47 39t-75.5 14.5h-82v133h96q137 0 137 155q0 51 -33.5 92.5t-105.5 41.5q-78 0 -111.5 -46.5t-17.5 -171.5l-35 -20z" />
<glyph unicode="&#xb4;" horiz-adv-x="657" d="M59 1153l482 195l43 -27l-41 -199l-449 -61z" />
<glyph unicode="&#xb5;" horiz-adv-x="925" d="M55 -246v1186h248v-520q0 -74 5 -122t21.5 -78t45 -41t78.5 -11q45 0 74.5 16.5t47 42t25.5 58t10 65.5v590h248v-940h-217l-18 127q-39 -68 -108 -105.5t-167 -37.5q-43 0 -69 26l26 -256h-250z" />
<glyph unicode="&#xb6;" horiz-adv-x="1093" d="M55 1145q0 78 54.5 132t132.5 54h784v-174h-145v-1403h-250v1403h-139v-1403h-250v1204q-78 0 -132.5 54.5t-54.5 132.5z" />
<glyph unicode="&#xb7;" horiz-adv-x="434" d="M68 481q0 59 42 101.5t103 42.5q59 0 101 -42.5t42 -101.5t-42 -102t-101 -43q-61 0 -103 43t-42 102z" />
<glyph unicode="&#xb8;" horiz-adv-x="581" d="M57 -377l45 129q39 -31 86.5 -47t88 -16t69.5 16t29 51q0 33 -22.5 50.5t-58.5 23.5t-79 2t-80 -12l51 235l133 23l-45 -166q49 8 94.5 0t78 -32.5t50 -62.5t11.5 -89q-8 -80 -56.5 -126t-115 -58.5t-141 7t-138.5 72.5z" />
<glyph unicode="&#xb9;" horiz-adv-x="413" d="M25 1106v70l116 262h185v-1028h-250v696h-51z" />
<glyph unicode="&#xba;" horiz-adv-x="923" d="M55 881v116q0 106 19.5 193.5t66.5 149t123 94t191 32.5t192.5 -32.5t123.5 -94t65.5 -148.5t19.5 -194v-116q0 -109 -19.5 -195t-65.5 -147.5t-124 -94t-192 -32.5q-115 0 -191 32.5t-123 94t-66.5 147.5t-19.5 195zM305 893q0 -170 35 -245t115 -75q84 0 118.5 75 t34.5 245v92q0 170 -34.5 245t-118.5 75q-80 0 -115 -75t-35 -245v-92z" />
<glyph unicode="&#xbb;" horiz-adv-x="829" d="M55 72v157l199 195l-199 186v160l373 -270v-154zM389 72v157l199 195l-199 186v160l373 -270v-154z" />
<glyph unicode="&#xbc;" horiz-adv-x="1533" d="M59 205v199h64v702h-51v70l116 262h185v-1034h63v-199h-377zM344 -82l410 1368h250l-410 -1368h-250zM747 12v150l469 866h68h131v-850h69v-166h-69v-74h69v-143h-382v143h65v74h-420zM987 178h180v113q4 63 7 123.5t7 121.5l9 99z" />
<glyph unicode="&#xbd;" horiz-adv-x="1671" d="M59 205v199h64v702h-51v70l116 262h185v-1034h63v-199h-377zM344 -82l410 1368h250l-410 -1368h-250zM888 -205q0 145 36 236.5t89.5 153t115.5 104.5t115.5 93t89.5 119.5t36 184.5q0 92 -20.5 150.5t-82.5 58.5q-39 0 -64.5 -17.5t-41 -57.5t-20.5 -104.5t-3 -160.5 l-33 -31h-206q-12 125 1 224.5t56 168t118.5 104.5t190.5 36q98 0 167 -29t110 -82t59 -127t18 -164q0 -104 -28.5 -179t-74.5 -131t-102.5 -99t-112.5 -83t-104.5 -84t-76.5 -102h301v64h198v-246h-731z" />
<glyph unicode="&#xbe;" horiz-adv-x="1939" d="M73 1036q-6 80 8.5 157t57.5 137.5t117.5 98.5t191.5 38q102 0 176 -27t120 -73t67.5 -108.5t21.5 -135.5q0 -80 -25.5 -133.5t-58.5 -86t-63.5 -49t-38.5 -18.5q8 -2 38.5 -14.5t64.5 -46t61.5 -94t27.5 -154.5q0 -55 -18.5 -115t-61.5 -110t-116.5 -81.5t-184.5 -31.5 q-104 0 -181 32.5t-125 92t-66.5 144.5t-5.5 187h229l20 -22q-4 -41 -1 -89t15.5 -89t39 -69t69.5 -28q76 0 106.5 49.5t30.5 110.5q0 39 1.5 81t-11 77t-44.5 57.5t-99 22.5h-82v166h96q86 0 111.5 54t25.5 171q0 80 -33.5 124t-105.5 44q-78 0 -112.5 -75t-16.5 -204 l-35 -20zM749 -82l410 1368h250l-410 -1368h-250zM1153 12v150l469 866h68h131v-850h69v-166h-69v-74h69v-143h-382v143h65v74h-420zM1393 178h180v113q4 63 7 123.5t7 121.5l9 99z" />
<glyph unicode="&#xbf;" horiz-adv-x="847" d="M25 158q0 88 24.5 148.5t61.5 102.5t79 71.5t78.5 57t61 58.5t24.5 76h189q0 -68 -19.5 -117t-50.5 -88t-64.5 -70.5t-64.5 -67.5t-50 -80t-19 -103q0 -92 20 -140.5t82 -48.5q41 0 65.5 19.5t39 54.5t19.5 82t5 102l33 31h207q8 -84 -3.5 -165t-52.5 -144.5 t-116.5 -102.5t-194.5 -39q-98 0 -167 30t-109.5 80t-59 115.5t-18.5 137.5zM301 912q0 59 42 102t102 43q59 0 102 -43t43 -102t-43 -101.5t-102 -42.5t-101.5 42.5t-42.5 101.5z" />
<glyph unicode="&#xc0;" horiz-adv-x="905" d="M-20 0v199h61l262 1034h266l291 -1034h66v-199h-357v180h47l-36 119h-277l-33 -119h64v-180h-354zM190 1614l41 27l484 -195l-37 -92l-447 61zM332 446h213l-45 140l-68 387l-59 -387z" />
<glyph unicode="&#xc1;" horiz-adv-x="905" d="M-20 0v199h61l262 1034h266l291 -1034h66v-199h-357v180h47l-36 119h-277l-33 -119h64v-180h-354zM190 1446l482 195l43 -27l-41 -199l-449 -61zM332 446h213l-45 140l-68 387l-59 -387z" />
<glyph unicode="&#xc2;" horiz-adv-x="905" d="M-20 0v199h61l262 1034h266l291 -1034h66v-199h-357v180h47l-36 119h-277l-33 -119h64v-180h-354zM164 1387l193 290h194l189 -290h-178l-107 155l-115 -155h-176zM332 446h213l-45 140l-68 387l-59 -387z" />
<glyph unicode="&#xc3;" horiz-adv-x="905" d="M-20 0v199h61l262 1034h266l291 -1034h66v-199h-357v180h47l-36 119h-277l-33 -119h64v-180h-354zM98 1479q33 68 77 110.5t95.5 61t108 8.5t115.5 -51q43 -31 70.5 -43t48 -9t37 22.5t34.5 55.5l121 -73q-68 -141 -169 -178t-218 49q-43 31 -73 45t-52.5 10t-41 -26.5 t-36.5 -61.5zM332 446h213l-45 140l-68 387l-59 -387z" />
<glyph unicode="&#xc4;" horiz-adv-x="905" d="M-20 0v199h61l262 1034h266l291 -1034h66v-199h-357v180h47l-36 119h-277l-33 -119h64v-180h-354zM164 1510q0 53 37 91t90 38t91 -38t38 -91t-37.5 -91.5t-91.5 -38.5q-53 0 -90 38t-37 92zM332 446h213l-45 140l-68 387l-59 -387zM484 1510q0 53 37 91t90 38t91 -38 t38 -91t-38 -91.5t-91 -38.5t-90 38t-37 92z" />
<glyph unicode="&#xc5;" horiz-adv-x="905" d="M-20 0v199h61l262 1034h266l291 -1034h66v-199h-357v180h47l-36 119h-277l-33 -119h64v-180h-354zM233 1550q0 45 17.5 85t47.5 70t68.5 47.5t83.5 17.5t85 -16.5t70 -45.5t47.5 -68.5t17.5 -84.5t-16.5 -84t-46.5 -69t-68.5 -47.5t-84.5 -17.5q-45 0 -84.5 16.5 t-69.5 45.5t-48.5 67.5t-18.5 83.5zM317 1553q0 -55 40 -94.5t95 -39.5t95.5 39t40.5 95q0 57 -40 96t-96 39q-55 0 -95 -39t-40 -96zM332 446h213l-45 140l-68 387l-59 -387z" />
<glyph unicode="&#xc6;" horiz-adv-x="1310" d="M-55 0v199h88l434 835h-64v199h889v-262h-198v63h-226v-327h344v-177h-344v-331h234v63h198v-262h-682v258h-311l-33 -78h58v-180h-387zM385 418h233v567h-8l-55 -231z" />
<glyph unicode="&#xc7;" horiz-adv-x="884" d="M35 440v373q0 92 20.5 174t66.5 143.5t123 97.5t191 36q109 0 190 -35t131 -98.5t70.5 -153.5t10.5 -199h-226l-22 19q0 68 -6 124t-22.5 97t-45.5 63.5t-74 22.5q-84 0 -121.5 -80t-37.5 -221v-352q0 -145 29.5 -224.5t117.5 -79.5q45 0 76 25t49 64.5t26.5 93 t8.5 108.5l22 21l226 -27q6 -96 -16.5 -179t-73 -142.5t-128 -93t-184.5 -33.5q-115 0 -192.5 36.5t-123.5 99t-65.5 145.5t-19.5 175zM211 -377l45 129q39 -31 86 -47t88 -16t69.5 16t28.5 51q0 33 -23.5 50.5t-59 23.5t-77.5 2t-79 -12l41 186l129 29l-33 -123q49 8 94 0 t78 -32.5t50.5 -62.5t13.5 -89q-10 -80 -57.5 -126t-114 -58.5t-141.5 7t-138 72.5z" />
<glyph unicode="&#xc8;" horiz-adv-x="786" d="M20 0v199h64v835h-64v199h64h674v-262h-199v63h-225v-327h262v-177h-262v-331h233v63h199v-262h-746zM131 1614l41 27l484 -195l-37 -92l-447 61z" />
<glyph unicode="&#xc9;" horiz-adv-x="786" d="M20 0v199h64v835h-64v199h64h674v-262h-199v63h-225v-327h262v-177h-262v-331h233v63h199v-262h-746zM131 1446l482 195l43 -27l-41 -199l-449 -61z" />
<glyph unicode="&#xca;" horiz-adv-x="786" d="M20 0v199h64v835h-64v199h64h674v-262h-199v63h-225v-327h262v-177h-262v-331h233v63h199v-262h-746zM104 1387l193 290h194l189 -290h-178l-107 155l-115 -155h-176z" />
<glyph unicode="&#xcb;" horiz-adv-x="786" d="M20 0v199h64v835h-64v199h64h674v-262h-199v63h-225v-327h262v-177h-262v-331h233v63h199v-262h-746zM104 1510q0 53 37 91t90 38t91 -38t38 -91t-37.5 -91.5t-91.5 -38.5q-53 0 -90 38t-37 92zM424 1510q0 53 37 91t90 38t91 -38t38 -91t-38 -91.5t-91 -38.5t-90 38 t-37 92z" />
<glyph unicode="&#xcc;" horiz-adv-x="399" d="M-62 1614l41 27l484 -195l-37 -92l-447 61zM20 0v199h64v835h-64v199h314v-1034h63v-199h-377zM334 1034v199h63v-199h-63z" />
<glyph unicode="&#xcd;" horiz-adv-x="399" d="M-62 1446l482 195l43 -27l-41 -199l-449 -61zM20 0v199h64v835h-64v199h314v-1034h63v-199h-377zM334 1034v199h63v-199h-63z" />
<glyph unicode="&#xce;" horiz-adv-x="399" d="M-88 1387l193 290h194l189 -290h-178l-107 155l-115 -155h-176zM20 0v199h64v835h-64v199h314v-1034h63v-199h-377zM334 1034v199h63v-199h-63z" />
<glyph unicode="&#xcf;" horiz-adv-x="399" d="M-88 1510q0 53 37 91t90 38t91 -38t38 -91t-37.5 -91.5t-91.5 -38.5q-53 0 -90 38t-37 92zM20 0v199h64v835h-64v199h314v-1034h63v-199h-377zM232 1510q0 53 37 91t90 38t91 -38t38 -91t-38 -91.5t-91 -38.5t-90 38t-37 92zM334 1034v199h63v-199h-63z" />
<glyph unicode="&#xd0;" horiz-adv-x="933" d="M0 532v175h84v327h-64v199h443q133 0 217 -42t130 -122t62.5 -194.5t16.5 -258.5q0 -141 -16.5 -255.5t-63.5 -194.5t-130 -123t-216 -43h-443v199h64v333h-84zM334 168h121q59 0 96 32.5t56.5 92t25.5 141.5t6 182q0 98 -3 181.5t-19.5 142.5t-51.5 92t-96 33h-135v-358 h90v-175h-90v-364z" />
<glyph unicode="&#xd1;" horiz-adv-x="954" d="M20 0v199h64v835h-64v199h269l379 -799q-6 27 -13.5 54.5t-11.5 56.5l-22 231v258h-64v199h313v-1233h-204l-379 795q6 -27 12 -52.5t10 -52.5l25 -252v-239h63v-199h-377zM123 1479q33 68 77 110.5t95.5 61t108 8.5t115.5 -51q43 -31 70.5 -43t48 -9t37 22.5t34.5 55.5 l121 -73q-68 -141 -169 -178t-218 49q-43 31 -73 45t-52.5 10t-41 -26.5t-36.5 -61.5zM870 1034v199h64v-199h-64z" />
<glyph unicode="&#xd2;" horiz-adv-x="903" d="M35 616q0 154 15.5 274t60.5 203t122.5 126t204.5 43q125 0 207 -43t128 -126t64.5 -203t18.5 -274q0 -147 -17.5 -263.5t-63.5 -198.5t-127 -126t-210 -44t-207.5 44t-123 124.5t-58.5 198.5t-14 265zM188 1614l41 27l484 -195l-37 -92l-447 61zM276 616 q0 -102 5.5 -187t21.5 -146.5t50 -96t93 -34.5t92 35.5t48.5 98t18.5 147.5t3 183q0 109 -4 197t-20.5 150.5t-48 96.5t-86.5 34t-89 -34t-52.5 -96.5t-25 -150.5t-6.5 -197z" />
<glyph unicode="&#xd3;" horiz-adv-x="903" d="M35 616q0 154 15.5 274t60.5 203t122.5 126t204.5 43q125 0 207 -43t128 -126t64.5 -203t18.5 -274q0 -147 -17.5 -263.5t-63.5 -198.5t-127 -126t-210 -44t-207.5 44t-123 124.5t-58.5 198.5t-14 265zM188 1446l482 195l43 -27l-41 -199l-449 -61zM276 616 q0 -102 5.5 -187t21.5 -146.5t50 -96t93 -34.5t92 35.5t48.5 98t18.5 147.5t3 183q0 109 -4 197t-20.5 150.5t-48 96.5t-86.5 34t-89 -34t-52.5 -96.5t-25 -150.5t-6.5 -197z" />
<glyph unicode="&#xd4;" horiz-adv-x="903" d="M35 616q0 154 15.5 274t60.5 203t122.5 126t204.5 43q125 0 207 -43t128 -126t64.5 -203t18.5 -274q0 -147 -17.5 -263.5t-63.5 -198.5t-127 -126t-210 -44t-207.5 44t-123 124.5t-58.5 198.5t-14 265zM161 1387l193 290h194l189 -290h-178l-107 155l-115 -155h-176z M276 616q0 -102 5.5 -187t21.5 -146.5t50 -96t93 -34.5t92 35.5t48.5 98t18.5 147.5t3 183q0 109 -4 197t-20.5 150.5t-48 96.5t-86.5 34t-89 -34t-52.5 -96.5t-25 -150.5t-6.5 -197z" />
<glyph unicode="&#xd5;" horiz-adv-x="903" d="M35 616q0 154 15.5 274t60.5 203t122.5 126t204.5 43q125 0 207 -43t128 -126t64.5 -203t18.5 -274q0 -147 -17.5 -263.5t-63.5 -198.5t-127 -126t-210 -44t-207.5 44t-123 124.5t-58.5 198.5t-14 265zM98 1479q33 68 77 110.5t95.5 61t108 8.5t115.5 -51 q43 -31 70.5 -43t48 -9t37 22.5t34.5 55.5l121 -73q-68 -141 -169 -178t-218 49q-43 31 -73 45t-52.5 10t-41 -26.5t-36.5 -61.5zM276 616q0 -102 5.5 -187t21.5 -146.5t50 -96t93 -34.5t92 35.5t48.5 98t18.5 147.5t3 183q0 109 -4 197t-20.5 150.5t-48 96.5t-86.5 34 t-89 -34t-52.5 -96.5t-25 -150.5t-6.5 -197z" />
<glyph unicode="&#xd6;" horiz-adv-x="903" d="M35 616q0 154 15.5 274t60.5 203t122.5 126t204.5 43q125 0 207 -43t128 -126t64.5 -203t18.5 -274q0 -147 -17.5 -263.5t-63.5 -198.5t-127 -126t-210 -44t-207.5 44t-123 124.5t-58.5 198.5t-14 265zM161 1510q0 53 37 91t90 38t91 -38t38 -91t-37.5 -91.5t-91.5 -38.5 q-53 0 -90 38t-37 92zM276 616q0 -102 5.5 -187t21.5 -146.5t50 -96t93 -34.5t92 35.5t48.5 98t18.5 147.5t3 183q0 109 -4 197t-20.5 150.5t-48 96.5t-86.5 34t-89 -34t-52.5 -96.5t-25 -150.5t-6.5 -197zM481 1510q0 53 37 91t90 38t91 -38t38 -91t-38 -91.5t-91 -38.5 t-90 38t-37 92z" />
<glyph unicode="&#xd7;" horiz-adv-x="751" d="M84 791l125 120l164 -166l162 162l122 -121l-161 -163l157 -156l-125 -121l-155 156l-160 -162l-123 123l160 160z" />
<glyph unicode="&#xd8;" horiz-adv-x="903" d="M35 616q0 154 15.5 274t60.5 203t122.5 126t204.5 43q125 0 207 -43t128 -126t64.5 -203t18.5 -274q0 -147 -17.5 -263.5t-63.5 -198.5t-127 -126t-210 -44t-207.5 44t-123 124.5t-58.5 198.5t-14 265zM125 -66l410 1368h250l-410 -1368h-250zM276 616q0 -102 5.5 -187 t21.5 -146.5t50 -96t93 -34.5t92 35.5t48.5 98t18.5 147.5t3 183q0 109 -4 197t-20.5 150.5t-48 96.5t-86.5 34t-89 -34t-52.5 -96.5t-25 -150.5t-6.5 -197z" />
<glyph unicode="&#xd9;" horiz-adv-x="925" d="M20 1034v199h66h293v-199h-55v-522q0 -80 4 -146.5t19 -113.5t42 -73.5t74 -26.5t72.5 27.5t38 75.5t15.5 113.5t3 143.5v522h-53v199h366v-199h-63v-467q0 -147 -10.5 -256.5t-49.5 -182.5t-115.5 -108.5t-211.5 -35.5q-133 0 -207 35.5t-111 108.5t-45 182.5t-8 256.5 v467h-64zM200 1614l41 27l484 -195l-37 -92l-447 61z" />
<glyph unicode="&#xda;" horiz-adv-x="925" d="M20 1034v199h66h293v-199h-55v-522q0 -80 4 -146.5t19 -113.5t42 -73.5t74 -26.5t72.5 27.5t38 75.5t15.5 113.5t3 143.5v522h-53v199h366v-199h-63v-467q0 -147 -10.5 -256.5t-49.5 -182.5t-115.5 -108.5t-211.5 -35.5q-133 0 -207 35.5t-111 108.5t-45 182.5t-8 256.5 v467h-64zM200 1446l482 195l43 -27l-41 -199l-449 -61z" />
<glyph unicode="&#xdb;" horiz-adv-x="925" d="M20 1034v199h66h293v-199h-55v-522q0 -80 4 -146.5t19 -113.5t42 -73.5t74 -26.5t72.5 27.5t38 75.5t15.5 113.5t3 143.5v522h-53v199h366v-199h-63v-467q0 -147 -10.5 -256.5t-49.5 -182.5t-115.5 -108.5t-211.5 -35.5q-133 0 -207 35.5t-111 108.5t-45 182.5t-8 256.5 v467h-64zM174 1387l193 290h194l189 -290h-178l-107 155l-115 -155h-176z" />
<glyph unicode="&#xdc;" horiz-adv-x="925" d="M20 1034v199h66h293v-199h-55v-522q0 -80 4 -146.5t19 -113.5t42 -73.5t74 -26.5t72.5 27.5t38 75.5t15.5 113.5t3 143.5v522h-53v199h366v-199h-63v-467q0 -147 -10.5 -256.5t-49.5 -182.5t-115.5 -108.5t-211.5 -35.5q-133 0 -207 35.5t-111 108.5t-45 182.5t-8 256.5 v467h-64zM174 1510q0 53 37 91t90 38t91 -38t38 -91t-37.5 -91.5t-91.5 -38.5q-53 0 -90 38t-37 92zM494 1510q0 53 37 91t90 38t91 -38t38 -91t-38 -91.5t-91 -38.5t-90 38t-37 92z" />
<glyph unicode="&#xdd;" horiz-adv-x="790" d="M-41 1034v199h338v-199h-45l94 -211l47 -176l39 168l94 219h-53v199h348v-199h-61l-238 -569v-266h64v-199h-375v199h63v278l-251 557h-64zM133 1446l482 195l43 -27l-41 -199l-449 -61z" />
<glyph unicode="&#xde;" horiz-adv-x="927" d="M-8 0v125h63v983h-63v125h375v-123h-105v-74h184q117 0 197 -28.5t129 -83t70.5 -131t21.5 -175.5q0 -98 -19.5 -174.5t-66.5 -131t-126 -83t-195 -28.5h-191v-74h101v-127h-375zM303 362h154q86 0 122.5 72t36.5 184q0 117 -40.5 182.5t-129.5 65.5h-143v-504z" />
<glyph unicode="&#xdf;" horiz-adv-x="907" d="M-8 0v199h63v821q0 117 27 187.5t77 110.5t124.5 53t171.5 13q172 0 252.5 -83.5t80.5 -223.5q0 -66 -13 -112.5t-29.5 -81.5t-30 -63.5t-13.5 -59.5q0 -39 21.5 -83t48.5 -97.5t48.5 -118t21.5 -142.5q0 -55 -20.5 -114.5t-66.5 -108.5t-121 -79.5t-181 -30.5v157 q76 0 107.5 49.5t31.5 108.5q0 82 -20.5 150.5t-46 124t-46 99.5t-20.5 81q0 31 14 60.5t31.5 62t34 73.5t22.5 97q4 63 -28.5 111t-96.5 48q-68 0 -99.5 -47t-31.5 -153v-1008h-313z" />
<glyph unicode="&#xe0;" d="M35 420v110q0 104 10 188.5t41 143t89 90t155 31.5q98 0 164.5 -38t105.5 -105l8 50l8 50h220h63v-199h-63v-542h63v-199h-285q-4 31 -11 60.5t-11 60.5q-45 -68 -120 -101.5t-173 -33.5q-82 0 -133 34.5t-81 93t-40 137.5t-10 169zM198 1321l41 27l484 -195l-37 -92 l-447 61zM285 420q0 -49 5 -93t21.5 -77t45 -52.5t77.5 -19.5t79 16.5t47.5 42t22.5 57.5t5 60v238q0 31 -4 65.5t-19.5 64.5t-46.5 48t-84 18q-49 0 -77.5 -15t-45 -47t-21.5 -81t-5 -115v-110z" />
<glyph unicode="&#xe1;" d="M35 420v110q0 104 10 188.5t41 143t89 90t155 31.5q98 0 164.5 -38t105.5 -105l8 50l8 50h220h63v-199h-63v-542h63v-199h-285q-4 31 -11 60.5t-11 60.5q-45 -68 -120 -101.5t-173 -33.5q-82 0 -133 34.5t-81 93t-40 137.5t-10 169zM198 1153l482 195l43 -27l-41 -199 l-449 -61zM285 420q0 -49 5 -93t21.5 -77t45 -52.5t77.5 -19.5t79 16.5t47.5 42t22.5 57.5t5 60v238q0 31 -4 65.5t-19.5 64.5t-46.5 48t-84 18q-49 0 -77.5 -15t-45 -47t-21.5 -81t-5 -115v-110z" />
<glyph unicode="&#xe2;" d="M35 420v110q0 104 10 188.5t41 143t89 90t155 31.5q98 0 164.5 -38t105.5 -105l8 50l8 50h220h63v-199h-63v-542h63v-199h-285q-4 31 -11 60.5t-11 60.5q-45 -68 -120 -101.5t-173 -33.5q-82 0 -133 34.5t-81 93t-40 137.5t-10 169zM172 1094l193 290h194l189 -290h-178 l-107 155l-115 -155h-176zM285 420q0 -49 5 -93t21.5 -77t45 -52.5t77.5 -19.5t79 16.5t47.5 42t22.5 57.5t5 60v238q0 31 -4 65.5t-19.5 64.5t-46.5 48t-84 18q-49 0 -77.5 -15t-45 -47t-21.5 -81t-5 -115v-110z" />
<glyph unicode="&#xe3;" d="M35 420v110q0 104 10 188.5t41 143t89 90t155 31.5q98 0 164.5 -38t105.5 -105l8 50l8 50h220h63v-199h-63v-542h63v-199h-285q-4 31 -11 60.5t-11 60.5q-45 -68 -120 -101.5t-173 -33.5q-82 0 -133 34.5t-81 93t-40 137.5t-10 169zM106 1186q33 68 77 110.5t95.5 61 t108 8.5t115.5 -51q43 -31 70.5 -43t48 -9t37 22.5t34.5 55.5l121 -73q-68 -141 -169 -178t-218 49q-43 31 -73 45t-52.5 10t-41 -26.5t-36.5 -61.5zM285 420q0 -49 5 -93t21.5 -77t45 -52.5t77.5 -19.5t79 16.5t47.5 42t22.5 57.5t5 60v238q0 31 -4 65.5t-19.5 64.5 t-46.5 48t-84 18q-49 0 -77.5 -15t-45 -47t-21.5 -81t-5 -115v-110z" />
<glyph unicode="&#xe4;" d="M35 420v110q0 104 10 188.5t41 143t89 90t155 31.5q98 0 164.5 -38t105.5 -105l8 50l8 50h220h63v-199h-63v-542h63v-199h-285q-4 31 -11 60.5t-11 60.5q-45 -68 -120 -101.5t-173 -33.5q-82 0 -133 34.5t-81 93t-40 137.5t-10 169zM172 1217q0 53 37 91t90 38t91 -38 t38 -91t-37.5 -91.5t-91.5 -38.5q-53 0 -90 38t-37 92zM285 420q0 -49 5 -93t21.5 -77t45 -52.5t77.5 -19.5t79 16.5t47.5 42t22.5 57.5t5 60v238q0 31 -4 65.5t-19.5 64.5t-46.5 48t-84 18q-49 0 -77.5 -15t-45 -47t-21.5 -81t-5 -115v-110zM492 1217q0 53 37 91t90 38 t91 -38t38 -91t-38 -91.5t-91 -38.5t-90 38t-37 92z" />
<glyph unicode="&#xe5;" d="M35 420v110q0 104 10 188.5t41 143t89 90t155 31.5q98 0 164.5 -38t105.5 -105l8 50l8 50h220h63v-199h-63v-542h63v-199h-285q-4 31 -11 60.5t-11 60.5q-45 -68 -120 -101.5t-173 -33.5q-82 0 -133 34.5t-81 93t-40 137.5t-10 169zM241 1257q0 45 17.5 85t47.5 70 t68.5 47.5t83.5 17.5t85 -16.5t70 -45.5t47.5 -68.5t17.5 -84.5t-16.5 -84t-46.5 -69t-68.5 -47.5t-84.5 -17.5q-45 0 -84.5 16.5t-69.5 45.5t-48.5 67.5t-18.5 83.5zM285 420q0 -49 5 -93t21.5 -77t45 -52.5t77.5 -19.5t79 16.5t47.5 42t22.5 57.5t5 60v238q0 31 -4 65.5 t-19.5 64.5t-46.5 48t-84 18q-49 0 -77.5 -15t-45 -47t-21.5 -81t-5 -115v-110zM325 1260q0 -55 40 -94.5t95 -39.5t95.5 39t40.5 95q0 57 -40 96t-96 39q-55 0 -95 -39t-40 -96z" />
<glyph unicode="&#xe6;" horiz-adv-x="1409" d="M35 428v94q0 106 9 192.5t40 146t89 91t157 31.5q84 0 141 -27.5t98 -74.5q2 6 2 12t2 12l7 35h127v-61q43 47 110.5 73.5t165.5 26.5q104 0 176 -32t115 -87t61.5 -130t18.5 -161v-116l-19 -19h-487v-31q0 -137 25.5 -196.5t109.5 -59.5q66 0 88.5 44.5t30.5 127.5 l35 13l213 -29q-4 -49 -22.5 -99t-53.5 -93t-87 -74t-124 -43q-20 -4 -43 -6t-45 -2q-92 4 -158.5 29.5t-109.5 70.5v-86h-142l-4 55q0 10 -1 16.5t-1 16.5q-39 -43 -83 -67.5t-109 -30.5q-18 -4 -38 -4h-40q-80 2 -130 36.5t-78 95t-37 140.5t-9 170zM285 420q0 -49 5 -93 t21.5 -77t45 -52.5t77.5 -19.5q63 0 95 27.5t45.5 66.5t13.5 81v73v166q0 31 -4 65.5t-19.5 64.5t-46.5 48t-84 18q-49 0 -77.5 -15t-45 -47t-21.5 -81t-5 -115v-110zM848 563h256v4v64q0 96 -24.5 142t-96.5 46q-84 0 -109.5 -59.5t-25.5 -188.5v-8z" />
<glyph unicode="&#xe7;" horiz-adv-x="837" d="M35 391v191q0 88 17.5 161.5t61.5 126t117.5 81t188.5 28.5q215 0 301 -114.5t65 -319.5h-221l-24 20q0 68 -3 116t-14.5 79t-36 45t-67.5 14q-84 0 -109.5 -56t-25.5 -192v-170q0 -141 25.5 -197.5t109.5 -56.5q76 0 98.5 64.5t22.5 177.5l24 19l221 -25 q6 -84 -11 -156.5t-60 -126t-116 -84t-179 -30.5q-115 0 -188.5 28.5t-117.5 82t-61.5 128t-17.5 166.5zM186 -377l45 129q39 -31 86.5 -47t88 -16t69.5 16t29 51q0 33 -22.5 50.5t-58.5 23.5t-79 2t-80 -12l41 186l129 27l-33 -121q49 8 94.5 0t79 -32.5t51 -62.5t11.5 -89 q-8 -80 -56.5 -126t-115 -58.5t-141 7t-138.5 72.5z" />
<glyph unicode="&#xe8;" horiz-adv-x="837" d="M35 391v191q0 74 17.5 144.5t60.5 126.5t117.5 91t189.5 35q104 0 175 -32t115 -87t62.5 -130t18.5 -161v-116l-19 -19h-487v-31q0 -137 25.5 -196.5t109.5 -59.5q66 0 88 44.5t31 127.5l34 13l213 -29q-4 -55 -27.5 -111.5t-68.5 -102.5t-111.5 -74.5t-158.5 -28.5 q-115 0 -188.5 34.5t-117.5 92t-61.5 130t-17.5 148.5zM155 1321l41 27l484 -195l-37 -92l-447 61zM285 563h256v4v64q0 96 -24.5 142t-96.5 46q-84 0 -109.5 -59.5t-25.5 -188.5v-8z" />
<glyph unicode="&#xe9;" horiz-adv-x="837" d="M35 391v191q0 74 17.5 144.5t60.5 126.5t117.5 91t189.5 35q104 0 175 -32t115 -87t62.5 -130t18.5 -161v-116l-19 -19h-487v-31q0 -137 25.5 -196.5t109.5 -59.5q66 0 88 44.5t31 127.5l34 13l213 -29q-4 -55 -27.5 -111.5t-68.5 -102.5t-111.5 -74.5t-158.5 -28.5 q-115 0 -188.5 34.5t-117.5 92t-61.5 130t-17.5 148.5zM155 1153l482 195l43 -27l-41 -199l-449 -61zM285 563h256v4v64q0 96 -24.5 142t-96.5 46q-84 0 -109.5 -59.5t-25.5 -188.5v-8z" />
<glyph unicode="&#xea;" horiz-adv-x="837" d="M35 391v191q0 74 17.5 144.5t60.5 126.5t117.5 91t189.5 35q104 0 175 -32t115 -87t62.5 -130t18.5 -161v-116l-19 -19h-487v-31q0 -137 25.5 -196.5t109.5 -59.5q66 0 88 44.5t31 127.5l34 13l213 -29q-4 -55 -27.5 -111.5t-68.5 -102.5t-111.5 -74.5t-158.5 -28.5 q-115 0 -188.5 34.5t-117.5 92t-61.5 130t-17.5 148.5zM129 1094l193 290h194l189 -290h-178l-107 155l-115 -155h-176zM285 563h256v4v64q0 96 -24.5 142t-96.5 46q-84 0 -109.5 -59.5t-25.5 -188.5v-8z" />
<glyph unicode="&#xeb;" horiz-adv-x="837" d="M35 391v191q0 74 17.5 144.5t60.5 126.5t117.5 91t189.5 35q104 0 175 -32t115 -87t62.5 -130t18.5 -161v-116l-19 -19h-487v-31q0 -137 25.5 -196.5t109.5 -59.5q66 0 88 44.5t31 127.5l34 13l213 -29q-4 -55 -27.5 -111.5t-68.5 -102.5t-111.5 -74.5t-158.5 -28.5 q-115 0 -188.5 34.5t-117.5 92t-61.5 130t-17.5 148.5zM129 1217q0 53 37 91t90 38t91 -38t38 -91t-37.5 -91.5t-91.5 -38.5q-53 0 -90 38t-37 92zM285 563h256v4v64q0 96 -24.5 142t-96.5 46q-84 0 -109.5 -59.5t-25.5 -188.5v-8zM449 1217q0 53 37 91t90 38t91 -38t38 -91 t-38 -91.5t-91 -38.5t-90 38t-37 92z" />
<glyph unicode="&#xec;" horiz-adv-x="393" d="M-66 1321l41 27l484 -195l-37 -92l-447 61zM2 0v199h64v542h-64v199h313v-741h64v-199h-377z" />
<glyph unicode="&#xed;" horiz-adv-x="393" d="M-66 1153l482 195l43 -27l-41 -199l-449 -61zM2 0v199h64v542h-64v199h313v-741h64v-199h-377z" />
<glyph unicode="&#xee;" horiz-adv-x="393" d="M-92 1094l193 290h194l189 -290h-178l-107 155l-115 -155h-176zM2 0v199h64v542h-64v199h313v-741h64v-199h-377z" />
<glyph unicode="&#xef;" horiz-adv-x="393" d="M-92 1217q0 53 37 91t90 38t91 -38t38 -91t-37.5 -91.5t-91.5 -38.5q-53 0 -90 38t-37 92zM2 0v199h64v542h-64v199h313v-741h64v-199h-377zM228 1217q0 53 37 91t90 38t91 -38t38 -91t-38 -91.5t-91 -38.5t-90 38t-37 92z" />
<glyph unicode="&#xf0;" horiz-adv-x="909" d="M35 391v187q0 90 16.5 164.5t56 128t103 83t160.5 29.5q86 0 139 -30.5t82 -82.5q-10 141 -70 226l-90 -76l-84 74l72 77q-41 16 -95.5 20.5t-119.5 -5.5v182q109 14 199 11t157 -25l47 55h70l106 -96l-75 -62q72 -92 103.5 -253.5t31.5 -419.5v-187q0 -90 -20.5 -164.5 t-67.5 -128t-125 -83t-193 -29.5t-191.5 29.5t-123.5 83t-67.5 128t-20.5 164.5zM285 401q0 -133 34.5 -193.5t118.5 -60.5q88 0 123 60.5t35 193.5v166q0 129 -34 191.5t-124 62.5q-86 0 -119.5 -60.5t-33.5 -193.5v-166z" />
<glyph unicode="&#xf1;" horiz-adv-x="968" d="M20 0v199h64v542h-64v199h281q6 -29 11 -57.5t12 -57.5q23 43 57.5 76t79.5 49q74 35 172 31q92 -2 142 -29.5t74.5 -78t30 -122t5.5 -159.5v-393h63v-199h-377v199h64v393q0 106 -30 151t-124 45q-45 0 -73.5 -15t-45 -39.5t-22.5 -56.5t-6 -65v-413h63v-199h-377z M129 1186q33 68 77 110.5t95.5 61t108 8.5t115.5 -51q43 -31 70.5 -43t48 -9t37 22.5t34.5 55.5l121 -73q-68 -141 -169 -178t-218 49q-43 31 -73 45t-52.5 10t-41 -26.5t-36.5 -61.5z" />
<glyph unicode="&#xf2;" horiz-adv-x="886" d="M35 391v187q0 90 20.5 164.5t66.5 128t122.5 83t191.5 29.5t192 -29.5t124 -83t67.5 -128t20.5 -164.5v-187q0 -90 -20.5 -164.5t-67.5 -128t-124 -83t-192 -29.5t-191.5 29.5t-122.5 83t-66.5 128t-20.5 164.5zM180 1321l41 27l484 -195l-37 -92l-447 61zM285 401 q0 -131 33.5 -192.5t117.5 -61.5q86 0 121 61.5t35 192.5v166q0 131 -35 192.5t-121 61.5q-84 0 -117.5 -61.5t-33.5 -192.5v-166z" />
<glyph unicode="&#xf3;" horiz-adv-x="886" d="M35 391v187q0 90 20.5 164.5t66.5 128t122.5 83t191.5 29.5t192 -29.5t124 -83t67.5 -128t20.5 -164.5v-187q0 -90 -20.5 -164.5t-67.5 -128t-124 -83t-192 -29.5t-191.5 29.5t-122.5 83t-66.5 128t-20.5 164.5zM180 1153l482 195l43 -27l-41 -199l-449 -61zM285 401 q0 -131 33.5 -192.5t117.5 -61.5q86 0 121 61.5t35 192.5v166q0 131 -35 192.5t-121 61.5q-84 0 -117.5 -61.5t-33.5 -192.5v-166z" />
<glyph unicode="&#xf4;" horiz-adv-x="886" d="M35 391v187q0 90 20.5 164.5t66.5 128t122.5 83t191.5 29.5t192 -29.5t124 -83t67.5 -128t20.5 -164.5v-187q0 -90 -20.5 -164.5t-67.5 -128t-124 -83t-192 -29.5t-191.5 29.5t-122.5 83t-66.5 128t-20.5 164.5zM153 1094l193 290h194l189 -290h-178l-107 155l-115 -155 h-176zM285 401q0 -131 33.5 -192.5t117.5 -61.5q86 0 121 61.5t35 192.5v166q0 131 -35 192.5t-121 61.5q-84 0 -117.5 -61.5t-33.5 -192.5v-166z" />
<glyph unicode="&#xf5;" horiz-adv-x="886" d="M35 391v187q0 90 20.5 164.5t66.5 128t122.5 83t191.5 29.5t192 -29.5t124 -83t67.5 -128t20.5 -164.5v-187q0 -90 -20.5 -164.5t-67.5 -128t-124 -83t-192 -29.5t-191.5 29.5t-122.5 83t-66.5 128t-20.5 164.5zM90 1186q33 68 77 110.5t95.5 61t108 8.5t115.5 -51 q43 -31 70.5 -43t48 -9t37 22.5t34.5 55.5l121 -73q-68 -141 -169 -178t-218 49q-43 31 -73 45t-52.5 10t-41 -26.5t-36.5 -61.5zM285 401q0 -131 33.5 -192.5t117.5 -61.5q86 0 121 61.5t35 192.5v166q0 131 -35 192.5t-121 61.5q-84 0 -117.5 -61.5t-33.5 -192.5v-166z " />
<glyph unicode="&#xf6;" horiz-adv-x="886" d="M35 391v187q0 90 20.5 164.5t66.5 128t122.5 83t191.5 29.5t192 -29.5t124 -83t67.5 -128t20.5 -164.5v-187q0 -90 -20.5 -164.5t-67.5 -128t-124 -83t-192 -29.5t-191.5 29.5t-122.5 83t-66.5 128t-20.5 164.5zM153 1217q0 53 37 91t90 38t91 -38t38 -91t-37.5 -91.5 t-91.5 -38.5q-53 0 -90 38t-37 92zM285 401q0 -131 33.5 -192.5t117.5 -61.5q86 0 121 61.5t35 192.5v166q0 131 -35 192.5t-121 61.5q-84 0 -117.5 -61.5t-33.5 -192.5v-166zM473 1217q0 53 37 91t90 38t91 -38t38 -91t-38 -91.5t-91 -38.5t-90 38t-37 92z" />
<glyph unicode="&#xf7;" horiz-adv-x="751" d="M69 392v174h629v-174h-629zM240 145q0 59 42 101.5t103 42.5q59 0 101 -42.5t42 -101.5t-42 -102t-101 -43q-61 0 -103 43t-42 102zM240 795q0 59 42 102t103 43q59 0 101 -43t42 -102t-42 -101.5t-101 -42.5q-61 0 -103 42t-42 102z" />
<glyph unicode="&#xf8;" horiz-adv-x="886" d="M35 391v187q0 90 20.5 164.5t66.5 128t122.5 83t191.5 29.5t192 -29.5t124 -83t67.5 -128t20.5 -164.5v-187q0 -90 -20.5 -164.5t-67.5 -128t-124 -83t-192 -29.5t-191.5 29.5t-122.5 83t-66.5 128t-20.5 164.5zM117 -115l403 1186h250l-405 -1186h-248zM285 401 q0 -131 33.5 -192.5t117.5 -61.5q86 0 121 61.5t35 192.5v166q0 131 -35 192.5t-121 61.5q-84 0 -117.5 -61.5t-33.5 -192.5v-166z" />
<glyph unicode="&#xf9;" horiz-adv-x="970" d="M20 741v199h64h311v-199h-63v-321q0 -74 5 -122t20.5 -78t45 -41t76.5 -11q45 0 76 16.5t48.5 42t24.5 58t9 65.5v391h-64v199h377v-199h-63v-542h63v-199h-280q-4 31 -9.5 63.5t-9.5 63.5q-31 -53 -81 -89t-115 -46q-35 -8 -86 -8q-74 2 -127.5 22.5t-89 67.5t-52 123.5 t-16.5 187.5v356h-64zM223 1321l41 27l484 -195l-37 -92l-447 61z" />
<glyph unicode="&#xfa;" horiz-adv-x="970" d="M20 741v199h64h311v-199h-63v-321q0 -74 5 -122t20.5 -78t45 -41t76.5 -11q45 0 76 16.5t48.5 42t24.5 58t9 65.5v391h-64v199h377v-199h-63v-542h63v-199h-280q-4 31 -9.5 63.5t-9.5 63.5q-31 -53 -81 -89t-115 -46q-35 -8 -86 -8q-74 2 -127.5 22.5t-89 67.5t-52 123.5 t-16.5 187.5v356h-64zM223 1153l482 195l43 -27l-41 -199l-449 -61z" />
<glyph unicode="&#xfb;" horiz-adv-x="970" d="M20 741v199h64h311v-199h-63v-321q0 -74 5 -122t20.5 -78t45 -41t76.5 -11q45 0 76 16.5t48.5 42t24.5 58t9 65.5v391h-64v199h377v-199h-63v-542h63v-199h-280q-4 31 -9.5 63.5t-9.5 63.5q-31 -53 -81 -89t-115 -46q-35 -8 -86 -8q-74 2 -127.5 22.5t-89 67.5t-52 123.5 t-16.5 187.5v356h-64zM196 1094l193 290h194l189 -290h-178l-107 155l-115 -155h-176z" />
<glyph unicode="&#xfc;" horiz-adv-x="970" d="M20 741v199h64h311v-199h-63v-321q0 -74 5 -122t20.5 -78t45 -41t76.5 -11q45 0 76 16.5t48.5 42t24.5 58t9 65.5v391h-64v199h377v-199h-63v-542h63v-199h-280q-4 31 -9.5 63.5t-9.5 63.5q-31 -53 -81 -89t-115 -46q-35 -8 -86 -8q-74 2 -127.5 22.5t-89 67.5t-52 123.5 t-16.5 187.5v356h-64zM196 1217q0 53 37 91t90 38t91 -38t38 -91t-37.5 -91.5t-91.5 -38.5q-53 0 -90 38t-37 92zM516 1217q0 53 37 91t90 38t91 -38t38 -91t-38 -91.5t-91 -38.5t-90 38t-37 92z" />
<glyph unicode="&#xfd;" horiz-adv-x="821" d="M-16 741v199h354v-199h-49l80 -225l26 -256l62 256l78 225h-54v199h357v-199h-62l-325 -866h57v-199h-375v199h90l68 166l-246 700h-61zM149 1153l482 195l43 -27l-41 -199l-449 -61z" />
<glyph unicode="&#xfe;" d="M-8 -125h63v1294h-63v199h63h238v-528q39 68 105.5 105.5t164.5 37.5q96 0 153.5 -31.5t88.5 -90t41 -142.5t10 -189v-110q0 -90 -10 -169t-39 -137.5t-80 -93t-133 -34.5q-98 0 -173 33.5t-120 101.5v-246h64v-199h-373v199zM305 354q0 -29 5 -60.5t21.5 -57t46.5 -42 t79 -16.5t78.5 19.5t46 52.5t21.5 77t5 93v110q0 131 -26.5 194.5t-124.5 63.5q-53 0 -83 -18t-45.5 -48t-19.5 -64.5t-4 -65.5v-238z" />
<glyph unicode="&#xff;" horiz-adv-x="821" d="M-16 741v199h354v-199h-49l80 -225l26 -256l62 256l78 225h-54v199h357v-199h-62l-325 -866h57v-199h-375v199h90l68 166l-246 700h-61zM123 1217q0 53 37 91t90 38t91 -38t38 -91t-37.5 -91.5t-91.5 -38.5q-53 0 -90 38t-37 92zM443 1217q0 53 37 91t90 38t91 -38 t38 -91t-38 -91.5t-91 -38.5t-90 38t-37 92z" />
<glyph unicode="&#x152;" horiz-adv-x="1337" d="M49 616q0 154 15.5 274t60.5 203t122.5 126t204.5 43q125 0 207 -43t128 -126t64.5 -203t18.5 -274q0 -147 -17.5 -263.5t-63.5 -198.5t-127 -126t-210 -44t-207.5 44t-123 124.5t-58.5 198.5t-14 265zM290 616q0 -102 5.5 -187t21.5 -146.5t50 -96t93 -34.5t92 35.5 t48.5 98t18.5 147.5t3 183q0 109 -4 197t-20.5 150.5t-48 96.5t-86.5 34t-89 -34t-52.5 -96.5t-25 -150.5t-6.5 -197zM608 0v199h64v835h-64v199h64h674v-262h-199v63h-225v-327h262v-177h-262v-331h233v63h199v-262h-746z" />
<glyph unicode="&#x153;" horiz-adv-x="1411" d="M49 391v187q0 90 20.5 164.5t66.5 128t122.5 83t191.5 29.5t192 -29.5t124 -83t67.5 -128t20.5 -164.5v-187q0 -90 -20.5 -164.5t-67.5 -128t-124 -83t-192 -29.5t-191.5 29.5t-122.5 83t-66.5 128t-20.5 164.5zM299 401q0 -131 33.5 -192.5t117.5 -61.5q86 0 121 61.5 t35 192.5v166q0 131 -35 192.5t-121 61.5q-84 0 -117.5 -61.5t-33.5 -192.5v-166zM606 391v191q0 74 17.5 144.5t60.5 126.5t117.5 91t189.5 35q104 0 175 -32t115 -87t62.5 -130t18.5 -161v-116l-19 -19h-487v-31q0 -137 25.5 -196.5t109.5 -59.5q66 0 88 44.5t31 127.5 l34 13l213 -29q-4 -55 -27.5 -111.5t-68.5 -102.5t-111.5 -74.5t-158.5 -28.5q-115 0 -188.5 34.5t-117.5 92t-61.5 130t-17.5 148.5zM856 563h256v4v64q0 96 -24.5 142t-96.5 46q-84 0 -109.5 -59.5t-25.5 -188.5v-8z" />
<glyph unicode="&#x178;" horiz-adv-x="790" d="M-41 1034v199h338v-199h-45l94 -211l47 -176l39 168l94 219h-53v199h348v-199h-61l-238 -569v-266h64v-199h-375v199h63v278l-251 557h-64zM106 1510q0 53 37 91t90 38t91 -38t38 -91t-37.5 -91.5t-91.5 -38.5q-53 0 -90 38t-37 92zM426 1510q0 53 37 91t90 38t91 -38 t38 -91t-38 -91.5t-91 -38.5t-90 38t-37 92z" />
<glyph unicode="&#x2c6;" horiz-adv-x="698" d="M55 1094l193 290h194l189 -290h-178l-107 155l-115 -155h-176z" />
<glyph unicode="&#x2dc;" horiz-adv-x="829" d="M55 1186q33 68 77 110.5t95.5 61t108 8.5t115.5 -51q43 -31 70.5 -43t48 -9t37 22.5t34.5 55.5l121 -73q-68 -141 -169 -178t-218 49q-43 31 -73 45t-52.5 10t-41 -26.5t-36.5 -61.5z" />
<glyph unicode="&#x2000;" horiz-adv-x="885" />
<glyph unicode="&#x2001;" horiz-adv-x="1770" />
<glyph unicode="&#x2002;" horiz-adv-x="885" />
<glyph unicode="&#x2003;" horiz-adv-x="1770" />
<glyph unicode="&#x2004;" horiz-adv-x="590" />
<glyph unicode="&#x2005;" horiz-adv-x="442" />
<glyph unicode="&#x2006;" horiz-adv-x="295" />
<glyph unicode="&#x2007;" horiz-adv-x="295" />
<glyph unicode="&#x2008;" horiz-adv-x="221" />
<glyph unicode="&#x2009;" horiz-adv-x="354" />
<glyph unicode="&#x200a;" horiz-adv-x="98" />
<glyph unicode="&#x2010;" horiz-adv-x="546" d="M55 377v174h424v-174h-424z" />
<glyph unicode="&#x2011;" horiz-adv-x="546" d="M55 377v174h424v-174h-424z" />
<glyph unicode="&#x2012;" horiz-adv-x="546" d="M55 377v174h424v-174h-424z" />
<glyph unicode="&#x2013;" horiz-adv-x="956" d="M55 377v174h834v-174h-834z" />
<glyph unicode="&#x2014;" horiz-adv-x="1161" d="M55 377v174h1039v-174h-1039z" />
<glyph unicode="&#x2018;" horiz-adv-x="413" d="M55 1016q0 45 29 86l115 162h106l-29 -125q31 -18 49.5 -50t18.5 -71q2 -20 -3 -37.5t-13 -34.5q-18 -35 -52 -55.5t-75 -20.5q-59 0 -102.5 43t-43.5 103z" />
<glyph unicode="&#x2019;" horiz-adv-x="413" d="M57 1116q0 20 5.5 39t13.5 35q18 33 51 53.5t76 20.5q59 0 101 -43t42 -103q0 -23 -7 -44t-17 -38l-117 -166h-109l31 125q-66 39 -70 121z" />
<glyph unicode="&#x201a;" horiz-adv-x="413" d="M57 135q0 59 42 102.5t104 43.5q45 0 80.5 -25t52.5 -66q10 -27 10 -55q0 -23 -8 -46t-19 -38l-114 -164h-109l31 125q-33 18 -51.5 51t-18.5 72z" />
<glyph unicode="&#x201c;" horiz-adv-x="743" d="M72 1016q0 45 28 86l115 162h107l-29 -125q31 -18 49 -50t18 -71q2 -20 -3 -37.5t-13 -34.5q-18 -35 -52 -55.5t-75 -20.5q-59 0 -102 43t-43 103zM371 1018q0 20 6 42.5t20 41.5l115 162h106l-28 -125q31 -18 50 -51t19 -72q0 -59 -42 -102.5t-103 -43.5 q-39 0 -72.5 20.5t-52.5 55.5q-18 31 -18 72z" />
<glyph unicode="&#x201d;" horiz-adv-x="743" d="M57 1116q0 20 5.5 39t13.5 35q18 33 51 53.5t76 20.5q59 0 101 -43t42 -103q0 -23 -7 -44t-17 -38l-117 -166h-109l31 125q-66 39 -70 121zM387 1116q0 20 5 39t14 35q18 33 50.5 53.5t75.5 20.5q59 0 101.5 -43t42.5 -103q0 -23 -7 -44t-18 -38l-116 -166h-109l31 125 q-66 39 -70 121z" />
<glyph unicode="&#x201e;" horiz-adv-x="743" d="M57 135q0 59 42 102.5t104 43.5q45 0 80.5 -25t52.5 -66q10 -27 10 -55q0 -23 -8 -46t-19 -38l-114 -164h-109l31 125q-33 18 -51.5 51t-18.5 72zM387 135q0 59 42 102.5t103 43.5q45 0 81 -25t53 -66q10 -27 10 -55q0 -23 -8.5 -47.5t-18.5 -36.5l-114 -164h-109l31 125 q-33 18 -51.5 51t-18.5 72z" />
<glyph unicode="&#x2022;" horiz-adv-x="786" d="M150 596q0 49 18 91t51 74t75 50t91 18t92 -18t76 -50t51.5 -74t18.5 -91t-18.5 -92t-51.5 -76t-76 -51.5t-92 -18.5t-91 18.5t-75 51.5t-51 76t-18 92z" />
<glyph unicode="&#x2026;" horiz-adv-x="1120" d="M55 145q0 59 43 101.5t103 42.5q59 0 102 -42.5t43 -101.5t-43 -102t-102 -43t-102.5 43t-43.5 102zM412 145q0 59 42 101.5t101 42.5t102 -42.5t43 -101.5t-43 -102t-102 -43t-101 43t-42 102zM766 145q0 59 42 101.5t101 42.5t102.5 -42.5t43.5 -101.5t-43 -102 t-103 -43q-59 0 -101 43t-42 102z" />
<glyph unicode="&#x202f;" horiz-adv-x="354" />
<glyph unicode="&#x2039;" horiz-adv-x="495" d="M55 346v154l373 270v-160l-199 -186l199 -195v-157z" />
<glyph unicode="&#x203a;" horiz-adv-x="495" d="M55 72v157l199 195l-199 186v160l373 -270v-154z" />
<glyph unicode="&#x205f;" horiz-adv-x="442" />
<glyph unicode="&#x20ac;" horiz-adv-x="976" d="M14 381v174h90v104h-90v175h90q0 88 23 166.5t71 137t123.5 92.5t184.5 34q111 0 190.5 -35t131 -98.5t71 -153.5t8.5 -199h-223l-22 19q0 68 -6.5 124t-23 97t-45 63.5t-73.5 22.5q-84 0 -119 -70.5t-41 -199.5h176v-175h-176v-104h176v-174h-174q4 -111 36 -172.5 t110 -61.5q45 0 75.5 25t49 64.5t25.5 93t7 108.5l23 21l225 -27q6 -96 -15.5 -179t-71.5 -142.5t-129 -93t-185 -33.5q-104 0 -177 30.5t-121 84t-71.5 126t-30.5 156.5h-92z" />
<glyph unicode="&#x2122;" horiz-adv-x="1847" d="M-4 971v262h788v-262h-180v63h-90v-426h64v-198h-375v198h63v426h-90v-63h-180zM743 410v198h64v625h235l222 -420l16 -70l45 99q4 8 6 14t6 14l203 363h303v-199h-63v-426h63v-198h-352v198h47l12 160q4 25 7.5 47.5t7.5 44.5l-230 -450h-112l-217 462l12 -264h67v-198 h-342z" />
<glyph unicode="&#x25fc;" horiz-adv-x="942" d="M0 0v942h942v-942h-942z" />
<glyph unicode="&#xfb01;" horiz-adv-x="837" d="M14 776v164h90v102q0 113 20.5 191t73 118t144.5 41t236 -38q98 23 155.5 -19.5t57.5 -120.5q0 -63 -45.5 -108t-108.5 -45q-68 0 -109 37t-41 88v22q-41 2 -66.5 -5t-39.5 -26.5t-20.5 -54.5t-6.5 -90v-92h408v-741h63v-199h-784v199h63v577h-90zM354 199h158v577h-158 v-577z" />
<glyph unicode="&#xfb02;" horiz-adv-x="925" d="M31 776v164h90v102q0 227 93.5 306t273.5 36v-176q-35 2 -57.5 -5t-36 -26.5t-18.5 -54.5t-5 -90v-92h117v-164h-117v-577h64v-199h-377v199h63v577h-90zM528 0v199h64v970h-64v199h314v-1169h63v-199h-377z" />
</font>
</defs>
</svg>
